<svg id="Capa_1" data-name="Capa 1" xmlns="http://www.w3.org/2000/svg" viewBox="0 0 216.64 213.68"><defs><style>.cls-1{opacity:0.3;}.cls-2{fill:#c8c7c7;}.cls-3{fill:#fff;opacity:0.7;}</style></defs><title>02</title><g class="cls-1"><rect class="cls-2" width="216.64" height="213.68"/></g><path class="cls-3" d="M457.17,281.73h-5.59v-7a23.4,23.4,0,0,0-46.8,0v7h-5.61a8,8,0,0,0-8,8v45.53a8,8,0,0,0,8,8h58a8,8,0,0,0,8-8V289.7A8,8,0,0,0,457.17,281.73Zm-41.83-7a12.82,12.82,0,0,1,25.65,0v7H415.34ZM432.5,322.2v11.62a.88.88,0,0,1-.9.86H426a.86.86,0,0,1-.84-.86V322.2a10.21,10.21,0,1,1,7.32,0Z" transform="translate(-319.87 -190.46)"/></svg>