<svg id="Capa_1" data-name="Capa 1" xmlns="http://www.w3.org/2000/svg" viewBox="0 0 188.18 219.67"><defs><style>.cls-1{fill:none;stroke:#e84e22;stroke-miterlimit:10;stroke-width:6px;}</style></defs><title>05</title><polygon class="cls-1" points="135.67 3 175.56 3 175.56 91.3 135.67 79.84 135.67 3"/><path class="cls-1" d="M329.28,376.19v-73.9c0-15.51,12.15-27.38,26-27.38V254.84L396.95,274l-.87-19.16L436,274.91V254.84s32.1,20.07,48.59,20.07c15.62,0,26.89,11.87,26.89,27.38v73.9c0,15.51-12.14,28.29-26.89,28.29H355.31C337.09,404.48,329.28,390.79,329.28,376.19Z" transform="translate(-326.28 -187.8)"/><ellipse class="cls-1" cx="34.01" cy="151.96" rx="11.3" ry="12.13"/><ellipse class="cls-1" cx="74.86" cy="151.96" rx="11.3" ry="12.13"/><ellipse class="cls-1" cx="114.76" cy="151.96" rx="11.3" ry="12.13"/><ellipse class="cls-1" cx="155.62" cy="151.96" rx="11.3" ry="12.13"/></svg>