<svg id="Capa_1" data-name="Capa 1" xmlns="http://www.w3.org/2000/svg" viewBox="0 0 185.65 214.47"><defs><style>.cls-1,.cls-2{fill:#fff;stroke:#e84e22;stroke-miterlimit:10;stroke-width:8.09px;}.cls-2{fill-rule:evenodd;}</style></defs><title>07</title><line class="cls-1" x1="181.61" y1="214.47" x2="181.61"/><path class="cls-2" d="M333.33,243.38h0c3.71,22.35,15.51,48.44,33.52,73.91,18,24.84,39.77,44.09,59.65,54.66a7.55,7.55,0,0,0,8.08-.61l16.76-12.44,4.35-2.44a8.59,8.59,0,0,0,1.84-11.22l-19.25-26.06c-2.49-3.76-7.47-4.37-11.18-1.88l-6.86,5a8.63,8.63,0,0,1-11.78-.61c-6.2-6.86-12.44-14.31-18-21.76-5.55-8.08-10.53-16.13-14.88-23.6-1.88-4.35-1.27-9.33,2.49-11.8l7.45-5c3.1-2.49,3.73-7.47,1.24-11.17l-18.64-26.11c-2.49-3.74-7.43-4.35-11.17-1.86L336.43,235.3a7.34,7.34,0,0,0-3.1,5.59h0a1.84,1.84,0,0,0,0,2.49Z" transform="translate(-328.8 -190.8)"/></svg>