<svg id="Capa_1" data-name="Capa 1" xmlns="http://www.w3.org/2000/svg" viewBox="0 0 176.72 212.77"><defs><style>.cls-1,.cls-2{fill:#fff;}.cls-2{stroke:#e84e22;stroke-miterlimit:10;stroke-width:5.25px;}.cls-3{fill:#e84e22;}</style></defs><title>09</title><path class="cls-1" d="M432.45,194.53c1.79-1,3.57-1.92,5.35-2.82H367.58c-14.82,15.81-24.89,33.6-29.69,52.82-7.9,31.64-.9,65.59,20.23,98.2,26.19,40.4,65,61.75,106,61.74A126.16,126.16,0,0,0,511.45,395V348.08C478,368.55,403,210.85,432.45,194.53Z" transform="translate(-334.73 -191.71)"/><polygon class="cls-1" points="32.85 0 176.72 0 176.72 203.3 119.52 156.38 59.09 39.57 32.85 0"/><path class="cls-2" d="M73.89,82h41.32a6.54,6.54,0,0,1,6.54,6.54v37a0,0,0,0,1,0,0H67.35a0,0,0,0,1,0,0v-37A6.54,6.54,0,0,1,73.89,82Z"/><circle class="cls-2" cx="94.55" cy="68.24" r="18.85"/><path class="cls-3" d="M456.48,323.81a2.62,2.62,0,0,1,2.88-2.7H464a.24.24,0,0,0,.27-.27v-4.66a2.79,2.79,0,1,1,5.57,0v4.66a.24.24,0,0,0,.27.27h4.66a2.7,2.7,0,1,1,0,5.39h-4.66a.24.24,0,0,0-.27.27v4.66a2.79,2.79,0,1,1-5.57,0v-4.66a.24.24,0,0,0-.27-.27h-4.66A2.62,2.62,0,0,1,456.48,323.81Z" transform="translate(-334.73 -191.71)"/></svg>