<svg id="Capa_1" data-name="Capa 1" xmlns="http://www.w3.org/2000/svg" viewBox="0 0 184.35 211.88"><defs><style>.cls-1{fill:#fff;stroke:#e84e22;stroke-miterlimit:10;stroke-width:8px;}</style></defs><title>10</title><line class="cls-1" x1="180.35" y1="211.88" x2="180.35"/><polygon class="cls-1" points="103.9 33.7 133.94 33.7 133.94 96.93 103.9 88.72 103.9 33.7"/><path class="cls-1" d="M333.38,358.57V305.66a19.66,19.66,0,0,1,19.6-19.6V271.69l31.36,13.72-.65-13.72,30,14.37V271.69s24.17,14.37,36.59,14.37c11.76,0,20.25,8.5,20.25,19.6v52.92a20.35,20.35,0,0,1-20.25,20.25H353C339.26,378.83,333.38,369,333.38,358.57Z" transform="translate(-329.38 -192.13)"/><ellipse class="cls-1" cx="27.35" cy="140.36" rx="8.51" ry="8.69"/><ellipse class="cls-1" cx="58.11" cy="140.36" rx="8.51" ry="8.69"/><ellipse class="cls-1" cx="88.15" cy="140.36" rx="8.51" ry="8.69"/><ellipse class="cls-1" cx="118.92" cy="140.36" rx="8.51" ry="8.69"/></svg>