<svg id="Capa_1" data-name="Capa 1" xmlns="http://www.w3.org/2000/svg" viewBox="0 0 439.14 153.38"><defs><style>.cls-1{fill:#fff;}.cls-2{fill:#333;}</style></defs><title>100</title><path class="cls-1" d="M177.81,333A39.94,39.94,0,0,1,176,320c0-5.78.57-9.75,1.7-13.15,3.29-10,12-15.53,23.69-15.53,12.13,0,20.52,5.67,23.69,15.41a39.67,39.67,0,0,1,1.81,12.81,4.88,4.88,0,0,1-5.21,5.21H192.54a.6.6,0,0,0-.68.68,9.81,9.81,0,0,0,.57,3.17c1.47,4.65,5.67,7.14,11.34,7.14a22.24,22.24,0,0,0,10.31-2.83,11.15,11.15,0,0,1,5.44-1.7,5.69,5.69,0,0,1,5.78,5.89,6.6,6.6,0,0,1-3.17,5.67c-5.21,3.63-11.34,5.89-19.84,5.89C189.6,348.67,181,342.88,177.81,333Zm32.75-18.82a.6.6,0,0,0,.68-.68,13,13,0,0,0-.57-4.08c-1.25-3.85-4.65-6-9.18-6s-7.82,2.15-9.07,6a13,13,0,0,0-.57,4.08.6.6,0,0,0,.68.68Z" transform="translate(-176 -228.79)"/><path class="cls-1" d="M475.86,333a47.73,47.73,0,0,1,0-26.07c3.29-10.2,11.79-15.64,23.35-15.64,7.59,0,13.71,2.49,17.23,6,2.27,2.27,3.17,4.08,3.17,6.35a6.64,6.64,0,0,1-6.91,6.8c-2.38,0-4.19-1.25-6.46-3.29a9.16,9.16,0,0,0-6.8-2.49c-4.19,0-7,1.93-8.27,6-.68,2.15-1,4.76-1,9.29s.34,7.14,1,9.29c1.25,4.08,4.08,6,8.27,6a9.16,9.16,0,0,0,6.8-2.49c2.27-2,4.08-3.29,6.46-3.29a6.64,6.64,0,0,1,6.91,6.8c0,2.27-.91,4.08-3.17,6.35-3.51,3.51-9.63,6-17.23,6C487.64,348.67,479.14,343.22,475.86,333Z" transform="translate(-176 -228.79)"/><path class="cls-1" d="M547.48,348.1c-12.58,0-16.89-6.23-16.89-17.46V278.05c0-5.21,3.29-8.39,7.93-8.39s7.93,3.17,7.93,8.39v51.23c0,3.17,1.13,4.53,3.63,5,4.53.79,6.35,3.4,6.35,6.91,0,3.86-2.49,6.92-8.28,6.92Z" transform="translate(-176 -228.79)"/><path class="cls-1" d="M615.14,340.73c0,4.19-3.51,7.37-7.93,7.37a7.61,7.61,0,0,1-6.46-3.06l-1.36-1.93h-.11c-2.83,3.51-8.73,5.56-15.53,5.56-14.05,0-20.85-6.35-20.85-16.77,0-12.13,9.07-17.68,22.67-17.68h9.86a.6.6,0,0,0,.68-.68V313c0-5.1-3.63-8.16-11.22-8.16a26.27,26.27,0,0,0-8.84,1.59,12.34,12.34,0,0,1-3.74.79,6,6,0,0,1-6.35-6.35,6.91,6.91,0,0,1,4.08-6.35c3.63-1.81,9.18-3.17,16.77-3.17,16.55,0,24.48,8.39,24.48,22.1v15c0,2.61.23,3.85,1,5.21l1.47,2.49A8.84,8.84,0,0,1,615.14,340.73Zm-19-11.56v-3.74a.6.6,0,0,0-.68-.68h-7.71c-6.69,0-9.75,2-9.75,6.23,0,3.85,2.72,5.78,7.93,5.78C592.58,336.76,596.1,334.27,596.1,329.17Z" transform="translate(-176 -228.79)"/><path class="cls-1" d="M366.5,277.71c0-4.42,2.72-7.37,7.25-7.37h37.4c4.65,0,7.71,3.06,7.71,7.25s-3.06,7.14-7.71,7.14H383.84a.6.6,0,0,0-.68.68v15.3a.6.6,0,0,0,.68.68h21.88c4.65,0,7.59,2.95,7.59,7.14s-2.95,7.14-7.59,7.14H383.84a.6.6,0,0,0-.68.68v16a.6.6,0,0,0,.68.68h27.32c4.65,0,7.71,3.06,7.71,7.14s-3.06,7.25-7.71,7.25h-37.4c-4.53,0-7.25-2.95-7.25-7.37Z" transform="translate(-176 -228.79)"/><path class="cls-2" d="M386.65,232.35c-19.81-8.05-42.13-1.23-60,8.53-16.48,9-31.23,22.34-40.18,39-16.62,30.92-11.65,76.87,22.4,94,32.49,16.32,76.29,7,104.45-14a98.84,98.84,0,0,0,33-42.32c8.27-20.64,3.36-41.32-11.1-57.78C421,243.6,399,233.77,377.45,235.26c-22.34,1.55-41.92,13.74-54.8,31.78-2.63,3.69-.65,9.34,3,11.48,4.22,2.47,8.84.69,11.48-3,8.83-12.37,22.86-21.32,38-23.27,14.49-1.86,29.65,3,40.87,12.25,12.62,10.35,21,25.52,16.35,42-4,14.15-13.28,26.66-24.31,36.18-21.15,18.26-53.34,27.17-80.69,20.29-14.1-3.55-25.34-12.61-30.24-26.49a60.34,60.34,0,0,1,.26-40.34c5.59-15.66,18-28.53,31.82-37.28,15.42-9.72,35.07-17.55,53-10.28,4.2,1.71,9.22-1.86,10.32-5.86,1.32-4.8-1.65-8.61-5.86-10.32Z" transform="translate(-176 -228.79)"/><path class="cls-1" d="M430.3,339.71V300.27c0-5.21,3.29-8.39,7.93-8.39a7.54,7.54,0,0,1,7.71,6.12v.11h.11a17,17,0,0,1,13.83-6.8,13.39,13.39,0,0,1,5.78,1.13,6.92,6.92,0,0,1,4.19,6.46c0,4.65-3.17,8-7.82,8a11.86,11.86,0,0,1-3.4-.57,16.1,16.1,0,0,0-4.08-.57c-5.89,0-8.39,4.19-8.39,11.56v22.33c0,5.21-3.4,8.39-7.93,8.39S430.3,344.92,430.3,339.71Z" transform="translate(-176 -228.79)"/><path class="cls-1" d="M271.42,339.71V314.77c0-6-2.95-10-8.61-10s-8.5,4-8.5,10v24.94c0,5.21-3.4,8.39-7.93,8.39s-7.93-3.17-7.93-8.39V300.27c0-5.21,3.29-8.39,7.93-8.39a7.46,7.46,0,0,1,7.59,5.78h.11c2.72-3.51,7.48-6.35,14.51-6.35,12.13,0,18.7,8.5,18.7,20.4v28c0,5.21-3.29,8.39-7.93,8.39S271.42,344.92,271.42,339.71Z" transform="translate(-176 -228.79)"/><path class="cls-1" d="M299.29,308.88c0-11.79.57-15.75,2.15-20.85,4.08-12.58,14.06-18.93,27.54-18.93,11.56,0,20.06,5.33,23.92,12.24a9.82,9.82,0,0,1,1.47,5,7.36,7.36,0,0,1-7.59,7.48c-2.83,0-5.1-1.13-7.37-4.31-2.83-3.86-5.55-5.67-10.43-5.67-6.23,0-9.86,3.29-11.56,8.5-.91,2.83-1.25,5.56-1.25,16.55s.34,13.71,1.25,16.55c1.7,5.21,5.33,8.5,11.56,8.5,4.87,0,7.59-1.81,10.43-5.67,2.27-3.17,4.53-4.31,7.37-4.31a7.36,7.36,0,0,1,7.59,7.48,9.82,9.82,0,0,1-1.47,5c-3.85,6.92-12.35,12.24-23.92,12.24-13.49,0-23.46-6.35-27.54-18.93C299.86,324.64,299.29,320.67,299.29,308.88Z" transform="translate(-176 -228.79)"/></svg>