<svg xmlns="http://www.w3.org/2000/svg" viewBox="0 0 493.75 310.82"><defs><style>.cls-1{isolation:isolate;}.cls-2{mix-blend-mode:screen;}.cls-3{fill:#fff;}.cls-4{font-size:13px;font-family:DINNextRoundedLTPro-Light, DIN Next Rounded LT Pro;letter-spacing:0.03em;}.cls-4,.cls-7{fill:#333;}.cls-5{letter-spacing:0.01em;}.cls-6{letter-spacing:0.02em;}</style></defs><title>101</title><g class="cls-1"><g id="Capa_1" data-name="Capa 1"><g class="cls-2"><path class="cls-3" d="M642.53,345.61c0,3.42-3.44,6.2-7.68,6.2H483c-4.24,0-7.68-2.77-7.68-6.2v-103c0-3.42,3.44-6.2,7.68-6.2H634.86c4.24,0,7.68,2.77,7.68,6.2Z" transform="translate(-148.78 -150.6)"/></g><text class="cls-4" transform="translate(375.8 117.83)">INICIAR SESSIÓ</text><text class="cls-4" transform="translate(372.38 180.22)">REGISTRA<tspan class="cls-5" x="59.7" y="0">R</tspan><tspan class="cls-6" x="67.77" y="0">-</tspan><tspan x="72.9" y="0">SE</tspan></text><path class="cls-7" d="M371.15,158c-39.76-16.69-85.58-2.41-121.55,17.12-32.64,17.73-61.79,43.81-80.21,76.31a159,159,0,0,0-18,107.19c6.55,36.24,28.21,69.64,61.5,86.53,34.88,17.7,75.76,19.09,113.74,13.12A224.14,224.14,0,0,0,421,420c29.25-20.88,53.69-48.59,68.11-81.72,9.64-22.16,14.64-45.26,9.88-69.31-4.15-21-15.86-40.21-29.94-56a148.72,148.72,0,0,0-103.73-49.24c-39-1.59-77.74,15-105.46,42.14A161.69,161.69,0,0,0,241,228.42c-5.29,7.51-1.59,19.78,6.28,23.94,9,4.75,18.3,1.73,23.94-6.28.41-.59,4.06-5.48,1.94-2.77,1.29-1.64,2.62-3.25,4-4.82q4.08-4.71,8.59-9t9.34-8.13c-2.74,2.18,2-1.43,2.63-1.87q2.83-2,5.76-3.82,4.86-3.05,10-5.67c1.81-.93,3.66-1.76,5.49-2.65.6-.29,3.09-1.33,0-.05,1.17-.48,2.35-.95,3.53-1.39a123.86,123.86,0,0,1,23.33-6.32c.54-.09,3.71-.56,1.41-.24s.87-.08,1.42-.14q3-.31,6-.46a118,118,0,0,1,13,.06q2.67.16,5.34.44c.54.06,3.75.48,1.47.15s.93.17,1.46.26a126.16,126.16,0,0,1,12.73,2.84q5.57,1.55,11,3.6c1,.36,1.92.76,2.88,1.13,2.53,1-2.33-1.14.09.05,2.09,1,4.23,2,6.3,3q5.55,2.84,10.82,6.19,2.31,1.47,4.56,3,1.29.89,2.55,1.82c1,.74,2.77,2.15.83.59a136.68,136.68,0,0,1,18.23,17.55c.41.48,4.28,5.35,2.37,2.81q2,2.64,3.82,5.38a110.11,110.11,0,0,1,7.08,12.16c.38.76,2.49,5.46,1.31,2.61.84,2,1.6,4.12,2.27,6.22s1.28,4.23,1.8,6.37q.39,1.61.71,3.24c.08.41.76,4.75.48,2.59s.1,1.34.13,1.81q.13,1.71.18,3.42.1,3.2-.07,6.41c0,.57-.82,7.23-.36,4.42q-.66,4.06-1.66,8c-4,16.25-10.78,29.53-20.92,44.43q-1.63,2.39-3.33,4.73c-.42.58-.87,1.15-1.29,1.74-1.49,2.12,1.73-2.13.11-.11-2.55,3.17-5.13,6.3-7.86,9.33a186.65,186.65,0,0,1-16.31,16q-2.15,1.87-4.36,3.67c-.85.69-5.14,3.92-2.06,1.67-3.07,2.24-6.12,4.5-9.27,6.62a205.7,205.7,0,0,1-20.22,11.94q-4.75,2.45-9.61,4.66c-.75.34-6.22,2.62-2.35,1.07-2,.8-4,1.6-6,2.36A216.88,216.88,0,0,1,338.87,420c-7.57,2-15.22,3.51-22.94,4.74-.37.06-2.74.43-.48.09,2.42-.37-.6.07-1.19.14q-2.81.34-5.63.6-6,.56-12,.79a204.27,204.27,0,0,1-24-.5c-2.14-.17-4.27-.4-6.4-.63-.66-.07-3.42-.53-.13,0-1.06-.17-2.12-.32-3.18-.5-4.23-.7-8.43-1.58-12.57-2.65a128.08,128.08,0,0,1-12.23-3.81c-1-.37-2-.76-3-1.15.67.26,2.87,1.32-.23-.11-1.94-.89-3.86-1.81-5.75-2.81a100,100,0,0,1-11-6.71c-.88-.62-1.77-1.25-2.62-1.92.61.47,2.24,1.89-.29-.33-1.37-1.2-2.74-2.39-4.06-3.65-2.63-2.52-5-5.22-7.4-8-2.07-2.41-.15-.15.21.33-.54-.73-1.08-1.46-1.61-2.2q-1.78-2.5-3.41-5.12-2.72-4.37-5-9c-.82-1.65-1.56-3.34-2.33-5,1.77,3.87-.73-2-1.06-2.93a127.51,127.51,0,0,1-5.8-22.48c-.12-.7-.21-1.41-.33-2.11-.44-2.6.29,3,.07.42-.16-1.9-.4-3.78-.54-5.68q-.45-6.07-.38-12.16.06-5.37.53-10.73.13-1.43.28-2.85c.06-.58.44-3.63.12-1.22s.11-.63.2-1.21q.28-1.76.61-3.52a131.54,131.54,0,0,1,6-21.83c.27-.73,2.54-6.16,1.08-2.86.83-1.87,1.67-3.74,2.56-5.59q2.65-5.49,5.75-10.76t6.53-10.21c1.15-1.66,2.35-3.27,3.54-4.9-2,2.78,1.27-1.58,1.93-2.39a178.6,178.6,0,0,1,17.12-18q4.16-3.82,8.54-7.38c.78-.63,1.57-1.25,2.35-1.88-2.52,2.06-.5.38,0,0,1.81-1.34,3.62-2.68,5.47-4a214.48,214.48,0,0,1,20.35-12.65q5.22-2.86,10.59-5.44,2.34-1.12,4.7-2.19l2.7-1.2c-2.78,1.22,2.24-.91,2.28-.93a164.8,164.8,0,0,1,26.83-8.22c2.28-.48,4.56-.88,6.86-1.25-3.08.5,2.23-.24,3.08-.32a102.27,102.27,0,0,1,14.57-.28c1.13.06,6.8.67,3.83.24,2.25.33,4.49.77,6.7,1.29a83,83,0,0,1,13.1,4.33c8.47,3.55,19.61-3.82,21.53-12.22,2.33-10.24-3.15-17.72-12.22-21.53Z" transform="translate(-148.78 -150.6)"/><path class="cls-3" d="M243,243.06a2.53,2.53,0,0,1,2.69-2.73h6.76c6.09,0,9.87,1.93,11.38,6.6.55,1.64.84,3.61.84,7.69s-.29,6-.84,7.69c-1.51,4.66-5.29,6.6-11.38,6.6h-6.76a2.49,2.49,0,0,1-2.69-2.69Zm6.43,20.33h2.86c2.86,0,4.92-1,5.63-3.23a30.76,30.76,0,0,0,0-11.09c-.71-2.27-2.77-3.23-5.63-3.23h-2.86a.22.22,0,0,0-.25.25v17.06A.22.22,0,0,0,249.38,263.39Z" transform="translate(-148.78 -150.6)"/><path class="cls-3" d="M270.13,243.19a3.32,3.32,0,1,1,3.32,3.32A3.3,3.3,0,0,1,270.13,243.19ZM270.5,266V251.42a2.94,2.94,0,1,1,5.88,0V266a2.94,2.94,0,1,1-5.88,0Z" transform="translate(-148.78 -150.6)"/><path class="cls-3" d="M301.42,266.42a3,3,0,0,1-5.33,1.6l-.5-.71h0c-1,1.3-3.23,2.06-5.75,2.06-5.21,0-7.73-2.35-7.73-6.22,0-4.5,3.36-6.55,8.4-6.55h3.65a.22.22,0,0,0,.25-.25v-.21c0-1.89-1.34-3-4.16-3a9.72,9.72,0,0,0-3.28.59,4.57,4.57,0,0,1-1.39.29,2.23,2.23,0,0,1-2.35-2.35,2.56,2.56,0,0,1,1.51-2.35,14.13,14.13,0,0,1,6.22-1.18c6.13,0,9.07,3.11,9.07,8.19v5.54a3.42,3.42,0,0,0,.38,1.93l.55.92A3.27,3.27,0,0,1,301.42,266.42Zm-7.06-4.28v-1.39a.22.22,0,0,0-.25-.25h-2.86c-2.48,0-3.61.76-3.61,2.31s1,2.14,2.94,2.14C293.06,264.95,294.36,264,294.36,262.13Z" transform="translate(-148.78 -150.6)"/><path class="cls-3" d="M307.17,274.65a2.88,2.88,0,0,1-.8-1.93,2.48,2.48,0,0,1,2.48-2.48,4.82,4.82,0,0,1,2.31.76,6.37,6.37,0,0,0,2.94.84c2.6,0,3.95-1.39,3.95-4.37v-1.64h0a6.05,6.05,0,0,1-5.17,2.27,6.81,6.81,0,0,1-6.85-5,15.89,15.89,0,0,1-.67-5,16.07,16.07,0,0,1,.67-5,6.81,6.81,0,0,1,6.85-5,6.12,6.12,0,0,1,5.29,2.35h0a2.78,2.78,0,0,1,2.81-2.14,2.85,2.85,0,0,1,2.94,3.11v15.25c0,6.85-3.44,10.25-10.12,10.25C311,276.92,308.18,275.79,307.17,274.65ZM317.67,261a9.11,9.11,0,0,0,.38-2.81,9.4,9.4,0,0,0-.38-2.86,2.85,2.85,0,0,0-3-2.23,2.9,2.9,0,0,0-3,2.23,9.41,9.41,0,0,0-.38,2.86,9.13,9.13,0,0,0,.38,2.81,2.9,2.9,0,0,0,3,2.23A2.85,2.85,0,0,0,317.67,261Z" transform="translate(-148.78 -150.6)"/><path class="cls-3" d="M342.7,266V256.8c0-2.23-1.09-3.7-3.19-3.7s-3.15,1.47-3.15,3.7V266a2.94,2.94,0,1,1-5.88,0V251.42a2.85,2.85,0,0,1,2.94-3.11,2.76,2.76,0,0,1,2.81,2.14h0a6.53,6.53,0,0,1,5.38-2.35c4.5,0,6.93,3.15,6.93,7.56V266a2.94,2.94,0,1,1-5.88,0Z" transform="translate(-148.78 -150.6)"/><path class="cls-3" d="M354.63,263.52a17.39,17.39,0,0,1,0-9.58c1.22-3.74,4.37-5.84,8.82-5.84s7.6,2.1,8.82,5.84a17.4,17.4,0,0,1,0,9.58c-1.22,3.74-4.37,5.84-8.82,5.84S355.85,267.26,354.63,263.52Zm12-1.39a15.51,15.51,0,0,0,0-6.81,3.32,3.32,0,0,0-6.3,0,15.51,15.51,0,0,0,0,6.81,3.32,3.32,0,0,0,6.3,0Z" transform="translate(-148.78 -150.6)"/><path class="cls-3" d="M378.91,267.43a2.62,2.62,0,0,1-1.43-2.35,2.39,2.39,0,0,1,2.44-2.35,3.41,3.41,0,0,1,1.72.55,9.71,9.71,0,0,0,5,1.47c2.14,0,3.15-.76,3.15-1.89,0-1-.55-1.47-2.94-1.72l-2.23-.25c-4.41-.5-6.64-2.69-6.64-6.22,0-4,3.07-6.55,8.4-6.55a13.77,13.77,0,0,1,6.17,1.34,2.59,2.59,0,0,1,1.72,2.31,2.23,2.23,0,0,1-2.31,2.31,3.93,3.93,0,0,1-1.68-.5,9.65,9.65,0,0,0-4.12-.88c-1.81,0-2.56.63-2.56,1.6s.5,1.43,2.81,1.68l2.23.25c4.79.55,6.76,2.77,6.76,6.17,0,4.16-3.32,7-9.07,7A14.16,14.16,0,0,1,378.91,267.43Z" transform="translate(-148.78 -150.6)"/><path class="cls-3" d="M400.58,243.19a3.32,3.32,0,1,1,3.32,3.32A3.3,3.3,0,0,1,400.58,243.19ZM401,266V251.42a2.94,2.94,0,1,1,5.88,0V266a2.94,2.94,0,1,1-5.88,0Z" transform="translate(-148.78 -150.6)"/><path class="cls-3" d="M233,293.46a2.53,2.53,0,0,1,2.69-2.73h13.86a2.67,2.67,0,1,1,0,5.33H239.45a.22.22,0,0,0-.25.25V302a.22.22,0,0,0,.25.25h8.11a2.65,2.65,0,1,1,0,5.29h-8.11a.22.22,0,0,0-.25.25v5.92a.22.22,0,0,0,.25.25h10.12a2.67,2.67,0,1,1,0,5.33H235.71a2.53,2.53,0,0,1-2.69-2.73Z" transform="translate(-148.78 -150.6)"/><path class="cls-3" d="M257.59,314a17.69,17.69,0,0,1,0-9.66c1.22-3.78,4.37-5.8,8.65-5.8a9,9,0,0,1,6.39,2.23,3.18,3.18,0,0,1,1.18,2.35,2.46,2.46,0,0,1-2.56,2.52,3.58,3.58,0,0,1-2.39-1.22,3.39,3.39,0,0,0-2.52-.92,2.92,2.92,0,0,0-3.07,2.23,15.89,15.89,0,0,0,0,6.89,2.92,2.92,0,0,0,3.07,2.23,3.39,3.39,0,0,0,2.52-.92,3.58,3.58,0,0,1,2.39-1.22,2.46,2.46,0,0,1,2.56,2.52,3.18,3.18,0,0,1-1.18,2.35,9,9,0,0,1-6.39,2.23C262,319.76,258.81,317.74,257.59,314Z" transform="translate(-148.78 -150.6)"/><path class="cls-3" d="M278.88,313.92a17.39,17.39,0,0,1,0-9.58c1.22-3.74,4.37-5.84,8.82-5.84s7.6,2.1,8.82,5.84a17.4,17.4,0,0,1,0,9.58c-1.22,3.74-4.37,5.84-8.82,5.84S280.1,317.66,278.88,313.92Zm12-1.39a15.51,15.51,0,0,0,0-6.81,3.32,3.32,0,0,0-6.3,0,15.51,15.51,0,0,0,0,6.81,3.32,3.32,0,0,0,6.3,0Z" transform="translate(-148.78 -150.6)"/><path class="cls-3" d="M315,316.44V307.2c0-2.23-1.09-3.7-3.19-3.7s-3.15,1.47-3.15,3.7v9.24a2.94,2.94,0,1,1-5.88,0V301.82a2.85,2.85,0,0,1,2.94-3.11,2.76,2.76,0,0,1,2.81,2.14h0a6.53,6.53,0,0,1,5.38-2.35c4.5,0,6.93,3.15,6.93,7.56v10.38a2.94,2.94,0,1,1-5.88,0Z" transform="translate(-148.78 -150.6)"/><path class="cls-3" d="M326.89,313.92a17.39,17.39,0,0,1,0-9.58c1.22-3.74,4.37-5.84,8.82-5.84s7.6,2.1,8.82,5.84a17.4,17.4,0,0,1,0,9.58c-1.22,3.74-4.37,5.84-8.82,5.84S328.11,317.66,326.89,313.92Zm12-1.39a15.51,15.51,0,0,0,0-6.81,3.32,3.32,0,0,0-6.3,0,15.51,15.51,0,0,0,0,6.81,3.32,3.32,0,0,0,6.3,0Z" transform="translate(-148.78 -150.6)"/><path class="cls-3" d="M375.19,316.44V307.2c0-2.23-1.09-3.7-3.19-3.7s-3.15,1.47-3.15,3.7v9.24a2.94,2.94,0,1,1-5.88,0V307.2c0-2.23-1.09-3.7-3.19-3.7s-3.15,1.47-3.15,3.7v9.24a2.94,2.94,0,1,1-5.88,0V301.82a2.85,2.85,0,0,1,2.94-3.11,2.76,2.76,0,0,1,2.81,2.14h0a6.53,6.53,0,0,1,5.38-2.35,6.25,6.25,0,0,1,5.5,2.65h0a8.08,8.08,0,0,1,6.39-2.65c4.79,0,7.23,3.11,7.23,7.56v10.38a2.95,2.95,0,1,1-5.88,0Z" transform="translate(-148.78 -150.6)"/><path class="cls-3" d="M387.07,293.59a3.32,3.32,0,1,1,3.32,3.32A3.3,3.3,0,0,1,387.07,293.59Zm.38,22.85V301.82a2.94,2.94,0,1,1,5.88,0v14.62a2.94,2.94,0,1,1-5.88,0Z" transform="translate(-148.78 -150.6)"/><path class="cls-3" d="M418.37,316.82a3,3,0,0,1-5.33,1.6l-.5-.71h0c-1,1.3-3.23,2.06-5.75,2.06-5.21,0-7.73-2.35-7.73-6.22,0-4.5,3.36-6.55,8.4-6.55h3.65a.22.22,0,0,0,.25-.25v-.21c0-1.89-1.34-3-4.16-3a9.72,9.72,0,0,0-3.28.59,4.57,4.57,0,0,1-1.39.29,2.23,2.23,0,0,1-2.35-2.35,2.56,2.56,0,0,1,1.51-2.35,14.13,14.13,0,0,1,6.22-1.18c6.13,0,9.07,3.11,9.07,8.19v5.54a3.42,3.42,0,0,0,.38,1.93l.55.92A3.27,3.27,0,0,1,418.37,316.82Zm-7.06-4.28v-1.39a.22.22,0,0,0-.25-.25H408.2c-2.48,0-3.61.76-3.61,2.31s1,2.14,2.94,2.14C410,315.35,411.31,314.42,411.31,312.53Z" transform="translate(-148.78 -150.6)"/><path class="cls-3" d="M248.14,355.41c0-4.37.21-5.84.8-7.73,1.51-4.66,5.21-7,10.21-7,4.28,0,7.44,2,8.86,4.54a3.64,3.64,0,0,1,.55,1.85,2.73,2.73,0,0,1-2.81,2.77,3.16,3.16,0,0,1-2.73-1.6,4.29,4.29,0,0,0-3.86-2.1,4.17,4.17,0,0,0-4.29,3.15c-.34,1.05-.46,2.06-.46,6.13s.13,5.08.46,6.13a4.17,4.17,0,0,0,4.29,3.15,4.29,4.29,0,0,0,3.86-2.1,3.16,3.16,0,0,1,2.73-1.6,2.73,2.73,0,0,1,2.81,2.77,3.64,3.64,0,0,1-.55,1.85c-1.43,2.56-4.58,4.54-8.86,4.54-5,0-8.7-2.35-10.21-7C248.35,361.25,248.14,359.78,248.14,355.41Z" transform="translate(-148.78 -150.6)"/><path class="cls-3" d="M273.84,344a3.32,3.32,0,1,1,3.32,3.32A3.3,3.3,0,0,1,273.84,344Zm.38,22.85V352.22a2.94,2.94,0,1,1,5.88,0v14.62a2.94,2.94,0,1,1-5.88,0Z" transform="translate(-148.78 -150.6)"/><path class="cls-3" d="M286.65,366.84V352.22a2.85,2.85,0,0,1,2.94-3.11,2.8,2.8,0,0,1,2.86,2.27v0h0a6.28,6.28,0,0,1,5.13-2.52,5,5,0,0,1,2.14.42,2.56,2.56,0,0,1,1.55,2.39,2.82,2.82,0,0,1-2.9,3,4.4,4.4,0,0,1-1.26-.21,6,6,0,0,0-1.51-.21c-2.18,0-3.11,1.55-3.11,4.28v8.28a2.94,2.94,0,1,1-5.88,0Z" transform="translate(-148.78 -150.6)"/><path class="cls-3" d="M304.8,364.36a17.69,17.69,0,0,1,0-9.66c1.22-3.78,4.37-5.8,8.65-5.8a9,9,0,0,1,6.39,2.23,3.18,3.18,0,0,1,1.18,2.35,2.46,2.46,0,0,1-2.56,2.52,3.58,3.58,0,0,1-2.39-1.22,3.39,3.39,0,0,0-2.52-.92,2.92,2.92,0,0,0-3.07,2.23,15.89,15.89,0,0,0,0,6.89,2.92,2.92,0,0,0,3.07,2.23,3.39,3.39,0,0,0,2.52-.92,3.58,3.58,0,0,1,2.39-1.22,2.46,2.46,0,0,1,2.56,2.52,3.18,3.18,0,0,1-1.18,2.35,9,9,0,0,1-6.39,2.23C309.17,370.16,306,368.14,304.8,364.36Z" transform="translate(-148.78 -150.6)"/><path class="cls-3" d="M338.44,367.81h0a6.53,6.53,0,0,1-5.38,2.35c-4.49,0-6.81-3.15-6.81-7.56V352.22a2.88,2.88,0,0,1,3-3.11,2.84,2.84,0,0,1,2.9,3.11v9.24c0,2.23,1,3.7,3.11,3.7s3.11-1.47,3.11-3.7v-9.24a2.94,2.94,0,1,1,5.88,0v14.62a2.85,2.85,0,0,1-2.94,3.11A2.76,2.76,0,0,1,338.44,367.81Z" transform="translate(-148.78 -150.6)"/><path class="cls-3" d="M356.92,369.95c-4.66,0-6.26-2.31-6.26-6.47V344a2.94,2.94,0,1,1,5.88,0v19c0,1.18.42,1.68,1.34,1.85a2.45,2.45,0,0,1,2.35,2.56c0,1.43-.92,2.56-3.07,2.56Z" transform="translate(-148.78 -150.6)"/><path class="cls-3" d="M383.26,367.22a3,3,0,0,1-5.33,1.6l-.5-.71h0c-1,1.3-3.23,2.06-5.75,2.06-5.21,0-7.73-2.35-7.73-6.22,0-4.5,3.36-6.55,8.4-6.55h3.65a.22.22,0,0,0,.25-.25v-.21c0-1.89-1.34-3-4.16-3a9.72,9.72,0,0,0-3.28.59,4.57,4.57,0,0,1-1.39.29,2.23,2.23,0,0,1-2.35-2.35,2.56,2.56,0,0,1,1.51-2.35,14.13,14.13,0,0,1,6.22-1.18c6.13,0,9.07,3.11,9.07,8.19v5.54a3.42,3.42,0,0,0,.38,1.93l.55.92A3.27,3.27,0,0,1,383.26,367.22Zm-7.06-4.28v-1.39a.22.22,0,0,0-.25-.25h-2.86c-2.48,0-3.61.76-3.61,2.31s1,2.14,2.94,2.14C374.9,365.75,376.2,364.82,376.2,362.93Z" transform="translate(-148.78 -150.6)"/><path class="cls-3" d="M388.21,366.84V352.22a2.85,2.85,0,0,1,2.94-3.11,2.8,2.8,0,0,1,2.86,2.27v0h0a6.28,6.28,0,0,1,5.13-2.52,5,5,0,0,1,2.14.42,2.56,2.56,0,0,1,1.55,2.39,2.82,2.82,0,0,1-2.9,3,4.4,4.4,0,0,1-1.26-.21,6,6,0,0,0-1.51-.21c-2.18,0-3.11,1.55-3.11,4.28v8.28a2.94,2.94,0,1,1-5.88,0Z" transform="translate(-148.78 -150.6)"/></g></g></svg>