<svg id="Capa_1" data-name="Capa 1" xmlns="http://www.w3.org/2000/svg" viewBox="0 0 352.08 310.82"><defs><style>.cls-1{fill:#333;}.cls-2{font-size:42px;fill:#fff;font-family:DINNextRoundedLTPro-Bold, DIN Next Rounded LT Pro;font-weight:700;letter-spacing:0.03em;}.cls-3{letter-spacing:0.01em;}.cls-4{letter-spacing:0.03em;}</style></defs><title>102</title><path class="cls-1" d="M442.28,157.54c-39.76-16.69-85.58-2.41-121.55,17.12-32.64,17.73-61.79,43.81-80.21,76.31a159,159,0,0,0-18,107.19c6.55,36.24,28.21,69.64,61.5,86.53,34.88,17.7,75.76,19.09,113.74,13.12a224.14,224.14,0,0,0,94.41-38.27c29.25-20.88,53.69-48.59,68.11-81.72,9.64-22.16,14.64-45.26,9.88-69.31-4.15-21-15.86-40.21-29.94-56a148.72,148.72,0,0,0-103.73-49.24c-39-1.59-77.74,15-105.46,42.14A161.69,161.69,0,0,0,312.16,228c-5.29,7.51-1.59,19.78,6.28,23.94,9,4.75,18.3,1.73,23.94-6.28.41-.59,4.06-5.48,1.94-2.77,1.29-1.64,2.62-3.25,4-4.82q4.08-4.71,8.59-9t9.34-8.13c-2.74,2.18,2-1.43,2.63-1.87q2.83-2,5.76-3.82,4.86-3.05,10-5.67c1.81-.93,3.66-1.76,5.49-2.65.6-.29,3.09-1.33,0-.05,1.17-.48,2.35-.95,3.53-1.39A123.86,123.86,0,0,1,417,199.13c.54-.09,3.71-.56,1.41-.24s.87-.08,1.42-.14q3-.31,6-.46a118,118,0,0,1,13,.06q2.67.16,5.34.44c.54.06,3.75.48,1.47.15s.93.17,1.46.26A126.16,126.16,0,0,1,459.8,202q5.57,1.55,11,3.6c1,.36,1.92.76,2.88,1.13,2.53,1-2.33-1.14.09.05,2.09,1,4.23,2,6.3,3q5.55,2.84,10.82,6.19,2.31,1.47,4.56,3,1.29.89,2.55,1.82c1,.74,2.77,2.15.83.59A136.68,136.68,0,0,1,517.06,239c.41.48,4.28,5.35,2.37,2.81q2,2.64,3.82,5.38a110.11,110.11,0,0,1,7.08,12.16c.38.76,2.49,5.46,1.31,2.61.84,2,1.6,4.12,2.27,6.22s1.28,4.23,1.8,6.37q.39,1.61.71,3.24c.08.41.76,4.75.48,2.59s.1,1.34.13,1.81q.13,1.71.18,3.42.1,3.2-.07,6.41c0,.57-.82,7.23-.36,4.42q-.66,4.06-1.66,8c-4,16.25-10.78,29.53-20.92,44.43q-1.63,2.39-3.33,4.73c-.42.58-.87,1.15-1.29,1.74-1.49,2.12,1.73-2.13.11-.11-2.55,3.17-5.13,6.3-7.86,9.33a186.65,186.65,0,0,1-16.31,16q-2.15,1.87-4.36,3.67c-.85.69-5.14,3.92-2.06,1.67-3.07,2.24-6.12,4.5-9.27,6.62a205.7,205.7,0,0,1-20.22,11.94q-4.75,2.45-9.61,4.66c-.75.34-6.22,2.62-2.35,1.07-2,.8-4,1.6-6,2.36A216.88,216.88,0,0,1,410,419.54c-7.57,2-15.22,3.51-22.94,4.74-.37.06-2.74.43-.48.09,2.42-.37-.6.07-1.19.14q-2.81.34-5.63.6-6,.56-12,.79a204.27,204.27,0,0,1-24-.5c-2.14-.17-4.27-.4-6.4-.63-.66-.07-3.42-.53-.13,0-1.06-.17-2.12-.32-3.18-.5-4.23-.7-8.43-1.58-12.57-2.65a128.08,128.08,0,0,1-12.23-3.81c-1-.37-2-.76-3-1.15.67.26,2.87,1.32-.23-.11-1.94-.89-3.86-1.81-5.75-2.81a100,100,0,0,1-11-6.71c-.88-.62-1.77-1.25-2.62-1.92.61.47,2.24,1.89-.29-.33-1.37-1.2-2.74-2.39-4.06-3.65-2.63-2.52-5-5.22-7.4-8-2.07-2.41-.15-.15.21.33-.54-.73-1.08-1.46-1.61-2.2q-1.78-2.5-3.41-5.12-2.72-4.37-5-9c-.82-1.65-1.56-3.34-2.33-5,1.77,3.87-.73-2-1.06-2.93a127.51,127.51,0,0,1-5.8-22.48c-.12-.7-.21-1.41-.33-2.11-.44-2.6.29,3,.07.42-.16-1.9-.4-3.78-.54-5.68q-.45-6.07-.38-12.16.06-5.37.53-10.73.13-1.43.28-2.85c.06-.58.44-3.63.12-1.22s.11-.63.2-1.21q.28-1.76.61-3.52a131.54,131.54,0,0,1,6-21.83c.27-.73,2.54-6.16,1.08-2.86.83-1.87,1.67-3.74,2.56-5.59q2.65-5.49,5.75-10.76t6.53-10.21c1.15-1.66,2.35-3.27,3.54-4.9-2,2.78,1.27-1.58,1.93-2.39a178.6,178.6,0,0,1,17.12-18q4.16-3.82,8.54-7.38c.78-.63,1.57-1.25,2.35-1.88-2.52,2.06-.5.38,0,0,1.81-1.34,3.62-2.68,5.47-4a214.48,214.48,0,0,1,20.35-12.65q5.22-2.86,10.59-5.44,2.34-1.12,4.7-2.19l2.7-1.2c-2.78,1.22,2.24-.91,2.28-.93a164.8,164.8,0,0,1,26.83-8.22c2.28-.48,4.56-.88,6.86-1.25-3.08.5,2.23-.24,3.08-.32a102.27,102.27,0,0,1,14.57-.28c1.13.06,6.8.67,3.83.24,2.25.33,4.49.77,6.7,1.29a83,83,0,0,1,13.1,4.33c8.47,3.55,19.61-3.82,21.53-12.22,2.33-10.24-3.15-17.72-12.22-21.53Z" transform="translate(-219.92 -150.18)"/><text class="cls-2" transform="translate(91.44 118.29)">Diagnosi <tspan x="-9.93" y="50.4">Economia </tspan><tspan x="5.94" y="100.8">Ci</tspan><tspan class="cls-3" x="43.78" y="100.8">r</tspan><tspan class="cls-4" x="62.26" y="100.8">cular</tspan></text></svg>