<svg id="Capa_1" data-name="Capa 1" xmlns="http://www.w3.org/2000/svg" viewBox="0 0 213.78 213.78"><defs><style>.cls-1,.cls-2{fill:#fff;}.cls-2{stroke:#e84e22;stroke-miterlimit:10;stroke-width:7.61px;}</style></defs><title>14</title><rect class="cls-1" width="213.78" height="213.78" rx="106.89" ry="106.89"/><path class="cls-2" d="M56.49,92.31H97.31a12.74,12.74,0,0,1,12.74,12.74v32.33a8,8,0,0,1-8,8H51.75a8,8,0,0,1-8-8V105.05A12.74,12.74,0,0,1,56.49,92.31Z"/><circle class="cls-2" cx="76.9" cy="75.56" r="22.98"/><path class="cls-2" d="M114.56,91.86h40.82a12.74,12.74,0,0,1,12.74,12.74v32.33a8,8,0,0,1-8,8h-50.3a8,8,0,0,1-8-8V104.6A12.74,12.74,0,0,1,114.56,91.86Z"/><circle class="cls-2" cx="134.97" cy="75.11" r="22.98"/><path class="cls-2" d="M86.2,107.59H127a12.74,12.74,0,0,1,12.74,12.74v32.33a8,8,0,0,1-8,8H81.45a8,8,0,0,1-8-8V120.33A12.74,12.74,0,0,1,86.2,107.59Z"/><circle class="cls-2" cx="106.61" cy="90.84" r="22.98"/></svg>