<svg id="Capa_1" data-name="Capa 1" xmlns="http://www.w3.org/2000/svg" viewBox="0 0 213.46 213.46"><defs><style>.cls-1,.cls-2{fill:#fff;}.cls-2,.cls-4{stroke:#e84e22;stroke-linejoin:round;}.cls-2{stroke-width:7.6px;}.cls-3,.cls-4{fill:#e84e22;}.cls-4{stroke-width:5.7px;}</style></defs><title>15</title><rect class="cls-1" width="213.46" height="213.46" rx="106.73" ry="106.73"/><path class="cls-2" d="M470.75,336.85s-12.17,13-12.05,13H388.77a1.4,1.4,0,0,1-1.41-1.41V244a1.41,1.41,0,0,1,1.41-1.4h80.58a1.41,1.41,0,0,1,1.41,1.4Z" transform="translate(-320.87 -191.02)"/><rect class="cls-3" x="78.65" y="67.08" width="59.06" height="2.4"/><rect class="cls-3" x="78.65" y="77.38" width="59.06" height="2.4"/><rect class="cls-3" x="78.65" y="88.4" width="59.06" height="2.4"/><rect class="cls-3" x="78.65" y="98.7" width="59.06" height="2.4"/><rect class="cls-3" x="78.65" y="109.71" width="59.06" height="2.4"/><rect class="cls-3" x="78.65" y="120.01" width="59.06" height="2.39"/><rect class="cls-3" x="78.65" y="131.03" width="59.06" height="2.4"/><polygon class="cls-4" points="137.83 158.81 137.71 145.9 149.88 145.83 137.83 158.81"/></svg>