<svg id="Capa_1" data-name="Capa 1" xmlns="http://www.w3.org/2000/svg" viewBox="0 0 197.74 173.47"><defs><style>.cls-1{fill:#fff;stroke:#e84e22;stroke-miterlimit:10;stroke-width:7.32px;}</style></defs><title>18</title><path class="cls-1" d="M29.81,65.16H79a26.15,26.15,0,0,1,26.15,26.15V138.5a7.92,7.92,0,0,1-7.92,7.92H11.58a7.92,7.92,0,0,1-7.92-7.92V91.31A26.15,26.15,0,0,1,29.81,65.16Z"/><circle class="cls-1" cx="54.42" cy="39.52" r="35.18"/><path class="cls-1" d="M118.72,64.48h49.21a26.15,26.15,0,0,1,26.15,26.15v47.19a7.92,7.92,0,0,1-7.92,7.92H100.48a7.92,7.92,0,0,1-7.92-7.92V90.63a26.15,26.15,0,0,1,26.15-26.15Z"/><circle class="cls-1" cx="143.32" cy="38.84" r="35.18"/><path class="cls-1" d="M75.29,88.55H124.5a26.15,26.15,0,0,1,26.15,26.15v47.19a7.92,7.92,0,0,1-7.92,7.92H57.05a7.92,7.92,0,0,1-7.92-7.92V114.71A26.15,26.15,0,0,1,75.29,88.55Z"/><circle class="cls-1" cx="99.9" cy="62.91" r="35.18"/></svg>