<svg id="Capa_1" data-name="Capa 1" xmlns="http://www.w3.org/2000/svg" viewBox="0 0 176.41 224.2"><defs><style>.cls-1{opacity:0.4;}.cls-2{fill:none;}.cls-2,.cls-4{stroke:#fff;stroke-linejoin:round;stroke-width:9.55px;}.cls-3,.cls-4{fill:#fff;}</style></defs><title>19</title><g class="cls-1"><path class="cls-2" d="M505,378.51c-.06.06-24.35,26-24.11,26H340.92a2.81,2.81,0,0,1-2.81-2.81v-209a2.81,2.81,0,0,1,2.81-2.81H502.15a2.81,2.81,0,0,1,2.81,2.81Z" transform="translate(-333.33 -185.05)"/><rect class="cls-3" x="29.11" y="35.89" width="118.18" height="4.8"/><rect class="cls-3" x="29.11" y="56.49" width="118.18" height="4.8"/><rect class="cls-3" x="29.11" y="78.53" width="118.18" height="4.8"/><rect class="cls-3" x="29.11" y="99.14" width="118.18" height="4.8"/><rect class="cls-3" x="29.11" y="121.18" width="118.18" height="4.8"/><rect class="cls-3" x="29.11" y="141.79" width="118.18" height="4.79"/><rect class="cls-3" x="29.11" y="163.83" width="118.18" height="4.8"/><polygon class="cls-4" points="147.52 219.43 147.29 193.6 171.63 193.46 147.52 219.43"/></g></svg>