<svg id="Capa_1" data-name="Capa 1" xmlns="http://www.w3.org/2000/svg" viewBox="0 0 221.76 194.54"><defs><style>.cls-1{opacity:0.4;}.cls-2{fill:#e84e22;stroke:#fff;stroke-miterlimit:10;stroke-width:8.21px;}</style></defs><title>22</title><g class="cls-1"><path class="cls-2" d="M33.43,73.08H88.62A29.33,29.33,0,0,1,118,102.41v52.92a8.88,8.88,0,0,1-8.88,8.88H13a8.88,8.88,0,0,1-8.88-8.88V102.41A29.33,29.33,0,0,1,33.43,73.08Z"/><circle class="cls-2" cx="61.03" cy="44.32" r="39.45"/><path class="cls-2" d="M133.14,72.31h55.19a29.33,29.33,0,0,1,29.33,29.33v52.92a8.88,8.88,0,0,1-8.88,8.88H112.69a8.88,8.88,0,0,1-8.88-8.88V101.64a29.33,29.33,0,0,1,29.33-29.33Z"/><circle class="cls-2" cx="160.73" cy="43.55" r="39.45"/><path class="cls-2" d="M84.43,99.31h55.19A29.33,29.33,0,0,1,169,128.64v52.92a8.88,8.88,0,0,1-8.88,8.88H64a8.88,8.88,0,0,1-8.88-8.88V128.64A29.33,29.33,0,0,1,84.43,99.31Z"/><circle class="cls-2" cx="112.03" cy="70.55" r="39.45"/></g></svg>