<svg id="Capa_1" data-name="Capa 1" xmlns="http://www.w3.org/2000/svg" viewBox="0 0 175.58 223.15"><defs><style>.cls-1{fill:#e84e22;}.cls-1,.cls-3{stroke:#fff;stroke-linejoin:round;stroke-width:9.51px;}.cls-2,.cls-3{fill:#fff;}</style></defs><title>23</title><path class="cls-1" d="M504.85,378.63c-.06.06-24.24,25.85-24,25.85H341.58a2.8,2.8,0,0,1-2.8-2.8v-208a2.8,2.8,0,0,1,2.8-2.8H502.06a2.8,2.8,0,0,1,2.8,2.8Z" transform="translate(-334.03 -186.08)"/><rect class="cls-2" x="28.98" y="35.72" width="117.62" height="4.77"/><rect class="cls-2" x="28.98" y="56.23" width="117.62" height="4.77"/><rect class="cls-2" x="28.98" y="78.16" width="117.62" height="4.78"/><rect class="cls-2" x="28.98" y="98.68" width="117.62" height="4.77"/><rect class="cls-2" x="28.98" y="120.61" width="117.62" height="4.78"/><rect class="cls-2" x="28.98" y="141.13" width="117.62" height="4.77"/><rect class="cls-2" x="28.98" y="163.06" width="117.62" height="4.78"/><polygon class="cls-3" points="146.82 218.39 146.6 192.69 170.82 192.55 146.82 218.39"/></svg>