<svg id="Capa_1" data-name="Capa 1" xmlns="http://www.w3.org/2000/svg" viewBox="0 0 174.2 221.39"><defs><style>.cls-1{opacity:0.5;}.cls-2{fill:#e84e22;}.cls-2,.cls-4{stroke:#fff;stroke-linejoin:round;stroke-width:9.43px;}.cls-3,.cls-4{fill:#fff;}</style></defs><title>27</title><g class="cls-1"><path class="cls-2" d="M512.43,378.83c-.05.06-24,25.64-23.81,25.64H350.44a2.77,2.77,0,0,1-2.78-2.78V195.29a2.78,2.78,0,0,1,2.78-2.77H509.66a2.78,2.78,0,0,1,2.78,2.77Z" transform="translate(-342.95 -187.8)"/><rect class="cls-3" x="28.75" y="35.44" width="116.7" height="4.74"/><rect class="cls-3" x="28.75" y="55.79" width="116.7" height="4.74"/><rect class="cls-3" x="28.75" y="77.55" width="116.7" height="4.74"/><rect class="cls-3" x="28.75" y="97.9" width="116.7" height="4.74"/><rect class="cls-3" x="28.75" y="119.66" width="116.7" height="4.74"/><rect class="cls-3" x="28.75" y="140.02" width="116.7" height="4.73"/><rect class="cls-3" x="28.75" y="161.78" width="116.7" height="4.74"/><polygon class="cls-4" points="145.67 216.68 145.45 191.18 169.48 191.03 145.67 216.68"/></g></svg>