<svg id="Capa_1" data-name="Capa 1" xmlns="http://www.w3.org/2000/svg" viewBox="0 0 208.2 208.2"><defs><style>.cls-1{fill:#fff;opacity:0.4;}.cls-2{opacity:0.5;}.cls-3{fill:#e84e22;}</style></defs><title>28</title><circle class="cls-1" cx="104.1" cy="104.1" r="104.1"/><g class="cls-2"><path class="cls-3" d="M351.94,298.69c0-10.75,7.36-18.1,19.32-18.1h31.29a1.63,1.63,0,0,0,1.84-1.84V247.45c0-12.57,8-19.93,18.7-19.93s18.72,7.36,18.72,19.93v31.29a1.63,1.63,0,0,0,1.84,1.84H475c12,0,19.32,7.36,19.32,18.1s-7.36,18.09-19.32,18.09H443.67a1.63,1.63,0,0,0-1.84,1.84v31.29c0,12.57-8,19.93-18.72,19.93s-18.7-7.36-18.7-19.93V318.62a1.63,1.63,0,0,0-1.84-1.84H371.26C359.3,316.78,351.94,309.42,351.94,298.69Z" transform="translate(-319.87 -196.27)"/></g></svg>