<svg id="Capa_1" data-name="Capa 1" xmlns="http://www.w3.org/2000/svg" viewBox="0 0 208.31 208.31"><defs><style>.cls-1{fill:#fff;}.cls-1,.cls-2{opacity:0.4;}.cls-3{fill:#e84e22;}</style></defs><title>30</title><circle class="cls-1" cx="104.16" cy="104.16" r="104.16"/><g class="cls-2"><path class="cls-3" d="M369.58,246.54c8.12-8.12,19.24-8.12,28.28.92l23.65,23.65a1.74,1.74,0,0,0,2.79,0l23.65-23.65c9.5-9.5,21.09-9,29.2-.93s8.59,19.71-.92,29.21l-23.65,23.65a1.74,1.74,0,0,0,0,2.79l23.65,23.65c9,9,9,20.16.92,28.28s-19.23,8.11-28.27-.93l-23.65-23.65a1.74,1.74,0,0,0-2.79,0l-23.65,23.65c-9.5,9.5-21.09,9-29.21.92s-8.57-19.7.93-29.2l23.65-23.65a1.74,1.74,0,0,0,0-2.79l-23.65-23.65C361.47,265.77,361.47,254.65,369.58,246.54Z" transform="translate(-319.21 -196.16)"/></g></svg>