<svg id="Capa_1" data-name="Capa 1" xmlns="http://www.w3.org/2000/svg" viewBox="0 0 208.25 208.25"><defs><style>.cls-1{fill:#fff;}.cls-2{fill:#e84e22;}</style></defs><title>33</title><circle class="cls-1" cx="104.12" cy="104.12" r="104.12"/><path class="cls-2" d="M351.95,298.67c0-10.75,7.36-18.11,19.32-18.11h31.3a1.63,1.63,0,0,0,1.84-1.84v-31.3c0-12.58,8-19.94,18.71-19.94s18.72,7.36,18.72,19.94v31.3a1.63,1.63,0,0,0,1.84,1.84H475c12,0,19.32,7.36,19.32,18.11S487,316.76,475,316.76h-31.3a1.63,1.63,0,0,0-1.84,1.84v31.3c0,12.58-8,19.94-18.72,19.94s-18.71-7.36-18.71-19.94v-31.3a1.63,1.63,0,0,0-1.84-1.84h-31.3C359.31,316.76,351.95,309.4,351.95,298.67Z" transform="translate(-319.87 -196.23)"/></svg>