<svg id="Capa_1" data-name="Capa 1" xmlns="http://www.w3.org/2000/svg" viewBox="0 0 207.64 207.64"><defs><style>.cls-1{fill:#fff;}.cls-2{fill:#e84e22;}</style></defs><title>34</title><circle class="cls-1" cx="103.82" cy="103.82" r="103.82"/><path class="cls-2" d="M370.14,247.06c8.09-8.09,19.18-8.09,28.19.91l23.57,23.57a1.74,1.74,0,0,0,2.78,0L448.25,248c9.47-9.47,21-9,29.1-.93s8.56,19.64-.91,29.12l-23.57,23.57a1.74,1.74,0,0,0,0,2.78l23.57,23.57c9,9,9,20.1.91,28.19s-19.17,8.08-28.18-.93L425.6,329.77a1.74,1.74,0,0,0-2.78,0l-23.57,23.57c-9.47,9.47-21,9-29.12.91s-8.55-19.63.93-29.1l23.57-23.57a1.74,1.74,0,0,0,0-2.78l-23.57-23.57C362.06,266.22,362.06,255.14,370.14,247.06Z" transform="translate(-319.93 -196.84)"/></svg>