<svg id="Capa_1" data-name="Capa 1" xmlns="http://www.w3.org/2000/svg" viewBox="0 0 219.67 150.22"><defs><style>.cls-1,.cls-4{fill:#e84e22;}.cls-1,.cls-3{stroke:#fff;stroke-linejoin:round;stroke-width:6.06px;}.cls-2,.cls-3{fill:#fff;}</style></defs><title>44</title><path class="cls-1" d="M425.79,350.87s-15.46,16.49-15.31,16.49H321.66a1.78,1.78,0,0,1-1.79-1.79V232.88a1.79,1.79,0,0,1,1.79-1.78H424a1.79,1.79,0,0,1,1.79,1.78Z" transform="translate(-316.84 -228.06)"/><rect class="cls-2" x="18.48" y="22.78" width="75.02" height="3.05"/><rect class="cls-2" x="18.48" y="35.86" width="75.02" height="3.04"/><rect class="cls-2" x="18.48" y="49.85" width="75.02" height="3.05"/><rect class="cls-2" x="18.48" y="62.94" width="75.02" height="3.04"/><rect class="cls-2" x="18.48" y="76.93" width="75.02" height="3.05"/><rect class="cls-2" x="18.48" y="90.01" width="75.02" height="3.04"/><rect class="cls-2" x="18.48" y="104" width="75.02" height="3.05"/><polygon class="cls-3" points="93.64 139.29 93.5 122.9 108.95 122.81 93.64 139.29"/><circle class="cls-2" cx="180.14" cy="110.69" r="39.53"/><path class="cls-4" d="M491.3,345.07c0-1.75.44-3.39,2.4-5.57l2.95-3.33c1.64-1.8,2.18-3.06,2.18-4.42a3.41,3.41,0,0,0-3.6-3.61,3.85,3.85,0,0,0-3.82,2.68,3.79,3.79,0,0,1-3.49,2.4,3.22,3.22,0,0,1-3.49-3.33,5,5,0,0,1,.27-1.47c1.26-3.93,5.13-6.82,10.7-6.82,6.5,0,11,4.26,11,9.88a9.77,9.77,0,0,1-2.95,7.15L500,342.39a3.86,3.86,0,0,0-1.26,2.68,3.63,3.63,0,0,1-3.77,3.71A3.55,3.55,0,0,1,491.3,345.07ZM495,351a4.47,4.47,0,1,1-4.48,4.47A4.5,4.5,0,0,1,495,351Z" transform="translate(-316.84 -228.06)"/></svg>