<svg id="Capa_1" data-name="Capa 1" xmlns="http://www.w3.org/2000/svg" viewBox="0 0 177.04 213.15"><defs><style>.cls-1,.cls-3{fill:#fff;}.cls-2{fill:#e84e22;}.cls-3{stroke:#e84e22;stroke-miterlimit:10;stroke-width:5.26px;}</style></defs><title>46</title><path class="cls-1" d="M431.95,194.15c1.8-1,3.58-1.92,5.35-2.83H367C352.12,207.17,342,225,337.21,244.24c-7.91,31.69-.9,65.71,20.27,98.38,26.24,40.47,65.12,61.86,106.2,61.85A126.39,126.39,0,0,0,511.09,395V348C477.55,368.49,402.44,210.51,431.95,194.15Z" transform="translate(-334.05 -191.33)"/><polygon class="cls-1" points="32.91 0 177.03 0 177.03 203.66 119.73 156.65 59.19 39.64 32.91 0"/><path class="cls-2" d="M456,318.4a2.62,2.62,0,0,1,2.88-2.7h4.67a.24.24,0,0,0,.27-.27v-4.67a2.8,2.8,0,1,1,5.58,0v4.67a.24.24,0,0,0,.27.27h4.67a2.7,2.7,0,1,1,0,5.4H469.7a.24.24,0,0,0-.27.27V326a2.8,2.8,0,1,1-5.58,0v-4.67a.24.24,0,0,0-.27-.27h-4.67A2.62,2.62,0,0,1,456,318.4Z" transform="translate(-334.05 -191.33)"/><polygon class="cls-3" points="99.23 49.48 114.87 49.48 114.87 82.39 99.23 78.12 99.23 49.48"/><path class="cls-3" d="M381.28,309.9V282.36a10.23,10.23,0,0,1,10.2-10.2v-7.48l16.32,7.14-.34-7.14,15.64,7.48v-7.48s12.58,7.48,19,7.48c6.12,0,10.54,4.42,10.54,10.2V309.9a10.59,10.59,0,0,1-10.54,10.54H391.48C384.34,320.45,381.28,315.34,381.28,309.9Z" transform="translate(-334.05 -191.33)"/><ellipse class="cls-3" cx="59.38" cy="105" rx="4.43" ry="4.52"/><ellipse class="cls-3" cx="75.39" cy="105" rx="4.43" ry="4.52"/><ellipse class="cls-3" cx="91.03" cy="105" rx="4.43" ry="4.52"/><ellipse class="cls-3" cx="107.05" cy="105" rx="4.43" ry="4.52"/></svg>