<svg id="Capa_1" data-name="Capa 1" xmlns="http://www.w3.org/2000/svg" viewBox="0 0 657.98 15.75"><defs><style>.cls-1{fill:none;}.cls-1,.cls-2{stroke:#fff;stroke-miterlimit:10;stroke-width:3px;}.cls-2{fill:#7fba27;}</style></defs><title>48</title><line class="cls-1" x1="7.88" y1="7.88" x2="650.11" y2="7.88"/><circle class="cls-2" cx="7.88" cy="7.88" r="6.38"/><circle class="cls-2" cx="41.68" cy="7.88" r="6.38"/><circle class="cls-2" cx="75.48" cy="7.88" r="6.38"/><circle class="cls-2" cx="109.28" cy="7.88" r="6.38"/><circle class="cls-2" cx="143.08" cy="7.88" r="6.38"/><circle class="cls-2" cx="176.89" cy="7.88" r="6.38"/><circle class="cls-2" cx="210.69" cy="7.88" r="6.38"/><circle class="cls-2" cx="244.49" cy="7.88" r="6.38"/><circle class="cls-2" cx="278.29" cy="7.88" r="6.38"/><circle class="cls-2" cx="312.09" cy="7.88" r="6.38"/><circle class="cls-2" cx="345.89" cy="7.88" r="6.38"/><circle class="cls-2" cx="379.69" cy="7.88" r="6.38"/><circle class="cls-2" cx="413.5" cy="7.88" r="6.38"/><circle class="cls-2" cx="447.3" cy="7.88" r="6.38"/><circle class="cls-2" cx="481.1" cy="7.88" r="6.38"/><circle class="cls-2" cx="514.9" cy="7.88" r="6.38"/><circle class="cls-2" cx="548.7" cy="7.88" r="6.38"/><circle class="cls-2" cx="582.5" cy="7.88" r="6.38"/><circle class="cls-2" cx="616.31" cy="7.88" r="6.38"/><circle class="cls-2" cx="650.11" cy="7.88" r="6.38"/></svg>