<svg id="Capa_1" data-name="Capa 1" xmlns="http://www.w3.org/2000/svg" viewBox="0 0 218.18 206.7"><defs><style>.cls-1{fill:#fff;stroke-miterlimit:10;}.cls-1,.cls-3{stroke:#e84e22;stroke-width:10.04px;}.cls-2,.cls-3{fill:#e84e22;}.cls-3{stroke-linejoin:round;}</style></defs><title>54</title><line class="cls-1" x1="213.16" y1="206.7" x2="213.16"/><path class="cls-1" d="M440.62,364.11S423,382.9,423.17,382.9H321.91a2,2,0,0,1-2-2V229.6a2,2,0,0,1,2-2H438.59a2,2,0,0,1,2,2Z" transform="translate(-314.85 -197.77)"/><rect class="cls-2" x="22.63" y="52.31" width="85.52" height="3.47"/><rect class="cls-2" x="22.63" y="67.22" width="85.52" height="3.47"/><rect class="cls-2" x="22.63" y="83.17" width="85.52" height="3.47"/><rect class="cls-2" x="22.63" y="98.08" width="85.52" height="3.47"/><rect class="cls-2" x="22.63" y="114.03" width="85.52" height="3.47"/><rect class="cls-2" x="22.63" y="128.95" width="85.52" height="3.47"/><rect class="cls-2" x="22.63" y="144.9" width="85.52" height="3.47"/><polygon class="cls-3" points="108.32 185.13 108.15 166.44 125.77 166.34 108.32 185.13"/></svg>