<svg id="Capa_1" data-name="Capa 1" xmlns="http://www.w3.org/2000/svg" viewBox="0 0 213.39 213.39"><defs><style>.cls-1{fill:#fff;}.cls-2{fill:#e84e22;}</style></defs><title>55</title><circle class="cls-1" cx="106.7" cy="106.7" r="106.7"/><path class="cls-2" d="M432.46,269.33c2,5.38,2.57,10.94-1,19.92l-5.23,13.68c-3,7.44-3.19,11.94-1.62,16.13,2.46,6.57,8.54,9.47,15.27,6.95,6.22-2.33-21.74,30.09-38.16,2.62-4.71-7.88-3-16.15.82-25.45l6.07-15.51c1.66-4.26,1.79-7,.77-9.7-2.65-7.06,1.09-13.46,7.31-15.79C423.12,259.78,429.81,262.27,432.46,269.33Zm-2.68-21.21a10.74,10.74,0,1,1,6.29-13.82A10.79,10.79,0,0,1,429.78,248.12Z" transform="translate(-319.31 -191.08)"/></svg>