<svg id="Capa_1" data-name="Capa 1" xmlns="http://www.w3.org/2000/svg" viewBox="0 0 166.57 212.88"><defs><style>.cls-1{fill:#fff;stroke-miterlimit:10;}.cls-1,.cls-3{stroke:#e84e22;stroke-width:8.03px;}.cls-2,.cls-3{fill:#e84e22;}.cls-3{stroke-linejoin:round;}</style></defs><title>58</title><line class="cls-1" x1="162.55" y1="212.88" x2="162.55"/><path class="cls-1" d="M439.47,354.71s-14.1,15-14,15h-81a1.63,1.63,0,0,1-1.63-1.63V247.07a1.63,1.63,0,0,1,1.63-1.63h93.37a1.63,1.63,0,0,1,1.63,1.63Z" transform="translate(-338.82 -191.59)"/><rect class="cls-2" x="18.11" y="71.87" width="68.44" height="2.78"/><rect class="cls-2" x="18.11" y="83.8" width="68.44" height="2.78"/><rect class="cls-2" x="18.11" y="96.56" width="68.44" height="2.78"/><rect class="cls-2" x="18.11" y="108.5" width="68.44" height="2.78"/><rect class="cls-2" x="18.11" y="121.26" width="68.44" height="2.78"/><rect class="cls-2" x="18.11" y="133.2" width="68.44" height="2.77"/><rect class="cls-2" x="18.11" y="145.96" width="68.44" height="2.78"/><polygon class="cls-3" points="86.68 178.16 86.55 163.2 100.65 163.12 86.68 178.16"/></svg>