<svg id="Capa_1" data-name="Capa 1" xmlns="http://www.w3.org/2000/svg" viewBox="0 0 229.83 224.67"><defs><style>.cls-1{fill:#66b32e;stroke:#fff;stroke-miterlimit:10;stroke-width:8.43px;}.cls-2{fill:#1d1d1b;}</style></defs><title>61</title><path class="cls-1" d="M531,327.64A319.73,319.73,0,0,0,343.42,190.8l-10.69,47.69,23.8,33.06L320.9,291.3l-8.65,38.62c0,.14-.08.28-.12.42a177.53,177.53,0,0,1,98.44,74.14l45.22-28.84,31.9,11.44.5-32.1Z" transform="translate(-307.05 -185.61)"/><path class="cls-2" d="M418.07,282.23h0l-1.33.91a1.57,1.57,0,0,1-.89.27,1.22,1.22,0,0,1-1.22-1.24,1.51,1.51,0,0,1,.74-1.24l2.26-1.56a3.11,3.11,0,0,1,1.79-.65A1.61,1.61,0,0,1,421,280.5v11.24a1.48,1.48,0,1,1-3,0Z" transform="translate(-307.05 -185.61)"/><path class="cls-2" d="M428,290a1.73,1.73,0,1,1-1.73,1.73A1.74,1.74,0,0,1,428,290Z" transform="translate(-307.05 -185.61)"/><path class="cls-2" d="M385,317.65l-2.4-4.62h-2.11a.11.11,0,0,0-.13.13V317a1.51,1.51,0,0,1-1.54,1.64,1.53,1.53,0,0,1-1.56-1.64V305.52a1.27,1.27,0,0,1,1.35-1.37h4.55c3,0,4.89,1.83,4.89,4.45a4.18,4.18,0,0,1-2.36,3.88l2.09,3.8a1.8,1.8,0,0,1,.21.86,1.42,1.42,0,0,1-1.48,1.48A1.64,1.64,0,0,1,385,317.65Zm0-9a1.75,1.75,0,0,0-1.94-1.79h-2.53a.11.11,0,0,0-.13.13v3.31a.11.11,0,0,0,.13.13h2.53A1.74,1.74,0,0,0,385,308.62Z" transform="translate(-307.05 -185.61)"/><path class="cls-2" d="M390.56,315.81a7.42,7.42,0,0,1-.34-2.42,7.56,7.56,0,0,1,.32-2.45,4.29,4.29,0,0,1,4.41-2.89,4.24,4.24,0,0,1,4.41,2.87,7.38,7.38,0,0,1,.34,2.38.91.91,0,0,1-1,1H393.3a.11.11,0,0,0-.13.13,1.82,1.82,0,0,0,.11.59,2,2,0,0,0,2.11,1.33,4.14,4.14,0,0,0,1.92-.53,2.08,2.08,0,0,1,1-.32,1.06,1.06,0,0,1,1.08,1.1,1.23,1.23,0,0,1-.59,1.05,6.14,6.14,0,0,1-3.69,1.1C392.76,318.72,391.15,317.65,390.56,315.81Zm6.09-3.5a.11.11,0,0,0,.13-.13,2.44,2.44,0,0,0-.11-.76,1.66,1.66,0,0,0-1.71-1.12,1.63,1.63,0,0,0-1.69,1.12,2.43,2.43,0,0,0-.11.76.11.11,0,0,0,.13.13Z" transform="translate(-307.05 -185.61)"/><path class="cls-2" d="M402.31,315.81a8.88,8.88,0,0,1,0-4.85,4.2,4.2,0,0,1,4.34-2.91,4.54,4.54,0,0,1,3.21,1.12,1.59,1.59,0,0,1,.59,1.18,1.24,1.24,0,0,1-1.29,1.26A1.79,1.79,0,0,1,408,311a1.7,1.7,0,0,0-1.27-.46,1.46,1.46,0,0,0-1.54,1.12,8,8,0,0,0,0,3.46,1.46,1.46,0,0,0,1.54,1.12,1.71,1.71,0,0,0,1.27-.46,1.8,1.8,0,0,1,1.2-.61,1.24,1.24,0,0,1,1.29,1.26,1.6,1.6,0,0,1-.59,1.18,4.54,4.54,0,0,1-3.21,1.12A4.2,4.2,0,0,1,402.31,315.81Z" transform="translate(-307.05 -185.61)"/><path class="cls-2" d="M419.2,317.54h0a3.28,3.28,0,0,1-2.7,1.18c-2.26,0-3.42-1.58-3.42-3.8v-5.21a1.44,1.44,0,0,1,1.5-1.56,1.42,1.42,0,0,1,1.45,1.56v4.64c0,1.12.51,1.86,1.56,1.86s1.56-.74,1.56-1.86v-4.64a1.48,1.48,0,1,1,3,0v7.34a1.43,1.43,0,0,1-1.48,1.56A1.39,1.39,0,0,1,419.2,317.54Z" transform="translate(-307.05 -185.61)"/><path class="cls-2" d="M425.39,317.06v-7.34a1.43,1.43,0,0,1,1.48-1.56,1.4,1.4,0,0,1,1.43,1.14v0h0a3.16,3.16,0,0,1,2.57-1.27,2.49,2.49,0,0,1,1.08.21,1.29,1.29,0,0,1,.78,1.2,1.42,1.42,0,0,1-1.45,1.5,2.22,2.22,0,0,1-.63-.11,3,3,0,0,0-.76-.11c-1.1,0-1.56.78-1.56,2.15v4.15a1.48,1.48,0,1,1-3,0Z" transform="translate(-307.05 -185.61)"/><path class="cls-2" d="M435,317.75a1.32,1.32,0,0,1-.72-1.18,1.2,1.2,0,0,1,1.22-1.18,1.71,1.71,0,0,1,.86.27,4.88,4.88,0,0,0,2.51.74c1.08,0,1.58-.38,1.58-.95s-.27-.74-1.48-.86l-1.12-.13c-2.21-.25-3.33-1.35-3.33-3.12,0-2,1.54-3.29,4.22-3.29a6.92,6.92,0,0,1,3.1.67,1.3,1.3,0,0,1,.86,1.16,1.12,1.12,0,0,1-1.16,1.16,2,2,0,0,1-.84-.25,4.85,4.85,0,0,0-2.07-.44c-.91,0-1.29.32-1.29.8s.25.72,1.41.84l1.12.13c2.4.27,3.4,1.39,3.4,3.1,0,2.09-1.67,3.5-4.56,3.5A7.11,7.11,0,0,1,435,317.75Z" transform="translate(-307.05 -185.61)"/><path class="cls-2" d="M446,315.79a8.73,8.73,0,0,1,0-4.81,4.81,4.81,0,0,1,8.86,0,8.73,8.73,0,0,1,0,4.81,4.81,4.81,0,0,1-8.86,0Zm6-.7a7.78,7.78,0,0,0,0-3.42,1.67,1.67,0,0,0-3.16,0,7.78,7.78,0,0,0,0,3.42,1.67,1.67,0,0,0,3.16,0Z" transform="translate(-307.05 -185.61)"/><path class="cls-2" d="M458.14,317.75a1.32,1.32,0,0,1-.72-1.18,1.2,1.2,0,0,1,1.22-1.18,1.71,1.71,0,0,1,.86.27,4.88,4.88,0,0,0,2.51.74c1.08,0,1.58-.38,1.58-.95s-.27-.74-1.48-.86l-1.12-.13c-2.21-.25-3.33-1.35-3.33-3.12,0-2,1.54-3.29,4.22-3.29a6.92,6.92,0,0,1,3.1.67,1.3,1.3,0,0,1,.86,1.16A1.12,1.12,0,0,1,464.7,311a2,2,0,0,1-.84-.25,4.85,4.85,0,0,0-2.07-.44c-.91,0-1.29.32-1.29.8s.25.72,1.41.84l1.12.13c2.4.27,3.4,1.39,3.4,3.1,0,2.09-1.67,3.5-4.56,3.5A7.11,7.11,0,0,1,458.14,317.75Z" transform="translate(-307.05 -185.61)"/></svg>