<svg id="Capa_1" data-name="Capa 1" xmlns="http://www.w3.org/2000/svg" viewBox="0 0 229.7 224.55"><defs><style>.cls-1{fill:#ffcc03;stroke:#fff;stroke-miterlimit:10;stroke-width:8.42px;}.cls-2{fill:#1d1d1b;}</style></defs><title>62</title><path class="cls-1" d="M530.8,327.69A319.55,319.55,0,0,0,343.29,190.92L332.6,238.58l23.79,33-35.61,19.73L312.13,330c0,.14-.08.28-.12.42a177.43,177.43,0,0,1,98.38,74.1l45.19-28.82,31.88,11.44L488,355Z" transform="translate(-306.93 -185.73)"/><path class="cls-2" d="M417.89,282.3h0l-1.33.91a1.56,1.56,0,0,1-.89.27,1.22,1.22,0,0,1-1.22-1.24,1.51,1.51,0,0,1,.74-1.24l2.26-1.56a3.11,3.11,0,0,1,1.79-.65,1.61,1.61,0,0,1,1.65,1.79v11.24a1.48,1.48,0,1,1-3,0Z" transform="translate(-306.93 -185.73)"/><path class="cls-2" d="M427.77,290a1.73,1.73,0,1,1-1.73,1.73A1.74,1.74,0,0,1,427.77,290Z" transform="translate(-306.93 -185.73)"/><path class="cls-2" d="M384.88,317.69l-2.4-4.62h-2.11a.11.11,0,0,0-.13.13V317a1.51,1.51,0,0,1-1.54,1.65,1.53,1.53,0,0,1-1.56-1.65V305.57a1.27,1.27,0,0,1,1.35-1.37H383c3,0,4.89,1.83,4.89,4.45a4.18,4.18,0,0,1-2.36,3.88l2.09,3.8a1.81,1.81,0,0,1,.21.86,1.42,1.42,0,0,1-1.48,1.48A1.64,1.64,0,0,1,384.88,317.69Zm0-9a1.75,1.75,0,0,0-1.94-1.79h-2.53a.11.11,0,0,0-.13.13v3.31a.11.11,0,0,0,.13.13h2.53A1.74,1.74,0,0,0,384.83,308.67Z" transform="translate(-306.93 -185.73)"/><path class="cls-2" d="M390.4,315.86a7.43,7.43,0,0,1-.34-2.43,7.56,7.56,0,0,1,.32-2.45,4.29,4.29,0,0,1,4.41-2.89,4.24,4.24,0,0,1,4.41,2.87,7.38,7.38,0,0,1,.34,2.38.91.91,0,0,1-1,1h-5.42a.11.11,0,0,0-.13.13,1.82,1.82,0,0,0,.11.59,2,2,0,0,0,2.11,1.33,4.14,4.14,0,0,0,1.92-.53,2.07,2.07,0,0,1,1-.32,1.06,1.06,0,0,1,1.08,1.1,1.23,1.23,0,0,1-.59,1.05,6.14,6.14,0,0,1-3.69,1.1C392.59,318.77,391,317.69,390.4,315.86Zm6.09-3.5a.11.11,0,0,0,.13-.13,2.44,2.44,0,0,0-.11-.76,1.66,1.66,0,0,0-1.71-1.12,1.63,1.63,0,0,0-1.69,1.12,2.42,2.42,0,0,0-.11.76.11.11,0,0,0,.13.13Z" transform="translate(-306.93 -185.73)"/><path class="cls-2" d="M402.14,315.86a8.89,8.89,0,0,1,0-4.85,4.2,4.2,0,0,1,4.34-2.91,4.54,4.54,0,0,1,3.21,1.12,1.59,1.59,0,0,1,.59,1.18,1.23,1.23,0,0,1-1.29,1.26,1.79,1.79,0,0,1-1.2-.61,1.7,1.7,0,0,0-1.27-.46,1.46,1.46,0,0,0-1.54,1.12,8,8,0,0,0,0,3.46,1.46,1.46,0,0,0,1.54,1.12,1.7,1.7,0,0,0,1.27-.46,1.8,1.8,0,0,1,1.2-.61,1.24,1.24,0,0,1,1.29,1.27,1.59,1.59,0,0,1-.59,1.18,4.54,4.54,0,0,1-3.21,1.12A4.2,4.2,0,0,1,402.14,315.86Z" transform="translate(-306.93 -185.73)"/><path class="cls-2" d="M419,317.59h0a3.27,3.27,0,0,1-2.7,1.18c-2.26,0-3.42-1.58-3.42-3.8v-5.21a1.45,1.45,0,0,1,1.5-1.56,1.42,1.42,0,0,1,1.46,1.56v4.64c0,1.12.51,1.86,1.56,1.86s1.56-.74,1.56-1.86v-4.64a1.48,1.48,0,1,1,3,0v7.34a1.43,1.43,0,0,1-1.48,1.56A1.39,1.39,0,0,1,419,317.59Z" transform="translate(-306.93 -185.73)"/><path class="cls-2" d="M425.2,317.1v-7.34a1.43,1.43,0,0,1,1.48-1.56,1.4,1.4,0,0,1,1.43,1.14v0h0a3.15,3.15,0,0,1,2.57-1.27,2.49,2.49,0,0,1,1.08.21,1.29,1.29,0,0,1,.78,1.2,1.42,1.42,0,0,1-1.46,1.5,2.2,2.2,0,0,1-.63-.11,3,3,0,0,0-.76-.11c-1.1,0-1.56.78-1.56,2.15v4.15a1.48,1.48,0,1,1-3,0Z" transform="translate(-306.93 -185.73)"/><path class="cls-2" d="M434.86,317.8a1.32,1.32,0,0,1-.72-1.18,1.2,1.2,0,0,1,1.22-1.18,1.71,1.71,0,0,1,.86.27,4.88,4.88,0,0,0,2.51.74c1.08,0,1.58-.38,1.58-.95s-.27-.74-1.48-.87l-1.12-.13c-2.21-.25-3.33-1.35-3.33-3.12,0-2,1.54-3.29,4.22-3.29a6.92,6.92,0,0,1,3.1.67,1.3,1.3,0,0,1,.87,1.16,1.12,1.12,0,0,1-1.16,1.16,2,2,0,0,1-.84-.25,4.85,4.85,0,0,0-2.07-.44c-.91,0-1.29.32-1.29.8s.25.72,1.41.84l1.12.13c2.4.27,3.4,1.39,3.4,3.1,0,2.09-1.67,3.5-4.56,3.5A7.11,7.11,0,0,1,434.86,317.8Z" transform="translate(-306.93 -185.73)"/><path class="cls-2" d="M445.76,315.84a8.72,8.72,0,0,1,0-4.81,4.81,4.81,0,0,1,8.86,0,8.72,8.72,0,0,1,0,4.81,4.81,4.81,0,0,1-8.86,0Zm6-.7a7.79,7.79,0,0,0,0-3.42,1.67,1.67,0,0,0-3.16,0,7.75,7.75,0,0,0,0,3.42,1.67,1.67,0,0,0,3.16,0Z" transform="translate(-306.93 -185.73)"/><path class="cls-2" d="M457.94,317.8a1.32,1.32,0,0,1-.72-1.18,1.2,1.2,0,0,1,1.22-1.18,1.71,1.71,0,0,1,.86.27,4.88,4.88,0,0,0,2.51.74c1.08,0,1.58-.38,1.58-.95s-.27-.74-1.48-.87l-1.12-.13c-2.21-.25-3.33-1.35-3.33-3.12,0-2,1.54-3.29,4.22-3.29a6.92,6.92,0,0,1,3.1.67,1.3,1.3,0,0,1,.87,1.16,1.12,1.12,0,0,1-1.16,1.16,2,2,0,0,1-.84-.25,4.85,4.85,0,0,0-2.07-.44c-.91,0-1.29.32-1.29.8s.25.72,1.41.84l1.12.13c2.4.27,3.4,1.39,3.4,3.1,0,2.09-1.67,3.5-4.56,3.5A7.11,7.11,0,0,1,457.94,317.8Z" transform="translate(-306.93 -185.73)"/></svg>