<svg id="Capa_1" data-name="Capa 1" xmlns="http://www.w3.org/2000/svg" viewBox="0 0 150.32 225.36"><defs><style>.cls-1{fill:#ffcc03;stroke:#fff;stroke-miterlimit:10;stroke-width:7.63px;}.cls-2{font-size:19.1px;fill:#1d1d1b;font-family:DINNextRoundedLTPro-Bold, DIN Next Rounded LT Pro;font-weight:700;letter-spacing:0.03em;}.cls-3{letter-spacing:0.01em;}.cls-4{letter-spacing:-0.02em;}.cls-5{letter-spacing:0.03em;}.cls-6{letter-spacing:0.02em;}.cls-7{letter-spacing:0.03em;}</style></defs><title>66</title><path class="cls-1" d="M491.18,288.29a289,289,0,0,0-24.91-97.24l-34.17,17.13c-.09,2.09-10.21,32.26-10.21,32.26s-27.5-6.65-33.76-10.21l-37.26,18.68-.41.18a160.49,160.49,0,0,1,4.18,111.66l52.14,17.48,6.49,26.24,21-17,42.95,14.4A288.62,288.62,0,0,0,491.18,288.29Z" transform="translate(-345.53 -185.86)"/><text class="cls-2" transform="translate(71.51 91.36)">2<tspan class="cls-3" x="11.19" y="0">.</tspan><tspan x="16.38" y="0"> </tspan><tspan class="cls-4"><tspan x="-38.09" y="22.91">F</tspan><tspan class="cls-5" x="-27.8" y="22.91">abri</tspan><tspan class="cls-6" x="8.34" y="22.91">c</tspan><tspan class="cls-7" x="17.8" y="22.91">ació</tspan></tspan><tspan x="5.37" y="45.83">i </tspan><tspan class="cls-5"><tspan x="-40.02" y="68.74">distribució</tspan></tspan></text></svg>