<svg id="Capa_1" data-name="Capa 1" xmlns="http://www.w3.org/2000/svg" viewBox="0 0 150.5 225.62"><defs><style>.cls-1{fill:#fff;stroke:#fff;stroke-miterlimit:10;stroke-width:7.64px;}.cls-2{font-size:19.12px;fill:#1d1d1b;font-family:DINNextRoundedLTPro-Bold, DIN Next Rounded LT Pro;font-weight:700;}.cls-2,.cls-5{letter-spacing:0.03em;}.cls-3{letter-spacing:0.01em;}.cls-4{letter-spacing:-0.02em;}.cls-6{letter-spacing:0.02em;}.cls-7{letter-spacing:0.03em;}</style></defs><title>68</title><path class="cls-1" d="M493.15,288.16a289.35,289.35,0,0,0-24.94-97.35L434,208c-.09,2.09-10.22,32.3-10.22,32.3S396.25,233.6,390,230l-37.31,18.7-.41.18a160.68,160.68,0,0,1,4.19,111.79l52.2,17.5,6.5,26.27,21-17,43,14.41A289,289,0,0,0,493.15,288.16Z" transform="translate(-347.33 -185.61)"/><text class="cls-2" transform="translate(71.59 91.47)">2<tspan class="cls-3" x="11.2" y="0">.</tspan><tspan x="16.4" y="0"> </tspan><tspan class="cls-4"><tspan x="-38.14" y="22.94">F</tspan><tspan class="cls-5" x="-27.83" y="22.94">abri</tspan><tspan class="cls-6" x="8.35" y="22.94">c</tspan><tspan class="cls-5" x="17.82" y="22.94">ació</tspan></tspan><tspan x="5.37" y="45.88">i </tspan><tspan class="cls-7"><tspan x="-40.07" y="68.82">distribució</tspan></tspan></text></svg>