<svg id="Capa_1" data-name="Capa 1" xmlns="http://www.w3.org/2000/svg" viewBox="0 0 293.83 225.68"><defs><style>.cls-1{fill:#66b32e;stroke:#fff;stroke-miterlimit:10;stroke-width:10.28px;}.cls-2{font-size:25.72px;fill:#1d1d1b;font-family:DINNextRoundedLTPro-Bold, DIN Next Rounded LT Pro;font-weight:700;}.cls-2,.cls-5{letter-spacing:0.03em;}.cls-3{letter-spacing:0.01em;}.cls-4{letter-spacing:0.02em;}.cls-6{letter-spacing:0.01em;}.cls-7{letter-spacing:0.03em;}</style></defs><title>73</title><path class="cls-1" d="M550.17,351.2,510,326.47l28.56-37.42-11.21-60c0-.15,0-.31-.06-.46a216.24,216.24,0,0,1-148.63-36.53l-1.39-1-34.71,50.51-40.51-1.46,15.89,37.29-39.3,57.2,1.39,1a389,389,0,0,0,143,60.9,389.38,389.38,0,0,0,136.28,3.59Z" transform="translate(-271.52 -183.93)"/><text class="cls-2" transform="translate(140.49 106.39)">4<tspan class="cls-3" x="15.07" y="0">.</tspan><tspan x="22.07" y="0"> </tspan><tspan class="cls-4"><tspan x="-49.36" y="30.87">R</tspan><tspan class="cls-5" x="-32.93" y="30.87">epa</tspan><tspan class="cls-6" x="10.7" y="30.87">r</tspan><tspan class="cls-7" x="22.02" y="30.87">ació</tspan></tspan></text></svg>