<svg id="Capa_1" data-name="Capa 1" xmlns="http://www.w3.org/2000/svg" viewBox="0 0 293.76 225.62"><defs><style>.cls-1{fill:#999;stroke:#fff;stroke-miterlimit:10;stroke-width:10.28px;}.cls-2{font-size:25.72px;fill:#1d1d1b;font-family:DINNextRoundedLTPro-Bold, DIN Next Rounded LT Pro;font-weight:700;}.cls-2,.cls-5{letter-spacing:0.03em;}.cls-3{letter-spacing:0.01em;}.cls-4{letter-spacing:0.01em;}.cls-6{letter-spacing:0.01em;}</style></defs><title>75</title><path class="cls-1" d="M550.1,351.21l-40.16-24.72,28.55-37.41-11.21-60c0-.15,0-.31-.06-.46a216.18,216.18,0,0,1-148.59-36.52l-1.39-1-34.7,50.5-40.5-1.46,15.89,37.28-39.29,57.19,1.39,1a388.85,388.85,0,0,0,143,60.89,389.28,389.28,0,0,0,136.25,3.59Z" transform="translate(-271.52 -183.99)"/><text class="cls-2" transform="translate(140.46 106.36)">4<tspan class="cls-3" x="15.07" y="0">.</tspan><tspan x="22.07" y="0"> </tspan><tspan class="cls-4"><tspan x="-49.35" y="30.86">R</tspan><tspan class="cls-5" x="-32.92" y="30.86">epa</tspan><tspan class="cls-6" x="10.7" y="30.86">r</tspan><tspan class="cls-5" x="22.01" y="30.86">ació</tspan></tspan></text></svg>