<svg id="Capa_1" data-name="Capa 1" xmlns="http://www.w3.org/2000/svg" viewBox="0 0 294.25 226"><defs><style>.cls-1{fill:#fff;stroke:#fff;stroke-miterlimit:10;stroke-width:10.29px;}.cls-2{font-size:25.76px;fill:#1d1d1b;font-family:DINNextRoundedLTPro-Bold, DIN Next Rounded LT Pro;font-weight:700;}.cls-2,.cls-7{letter-spacing:0.03em;}.cls-3{letter-spacing:0.01em;}.cls-4{letter-spacing:0.02em;}.cls-5{letter-spacing:0.03em;}.cls-6{letter-spacing:0.01em;}</style></defs><title>76</title><path class="cls-1" d="M550.09,351.12l-40.23-24.76,28.6-37.47-11.23-60.06c0-.15,0-.31-.06-.46a216.55,216.55,0,0,1-148.84-36.58l-1.39-1-34.76,50.59-40.57-1.46,15.91,37.35-39.36,57.28,1.39,1a389.5,389.5,0,0,0,143.21,61,389.94,389.94,0,0,0,136.48,3.6Z" transform="translate(-271.05 -183.62)"/><text class="cls-2" transform="translate(140.69 106.54)">4<tspan class="cls-3" x="15.1" y="0">.</tspan><tspan x="22.1" y="0"> </tspan><tspan class="cls-4"><tspan x="-49.44" y="30.91">R</tspan><tspan class="cls-5" x="-32.97" y="30.91">epa</tspan><tspan class="cls-6" x="10.72" y="30.91">r</tspan><tspan class="cls-7" x="22.05" y="30.91">ació</tspan></tspan></text></svg>