<svg id="Capa_1" data-name="Capa 1" xmlns="http://www.w3.org/2000/svg" viewBox="0 0 205.46 223.98"><defs><style>.cls-1{fill:#ffcc03;stroke:#fff;stroke-miterlimit:10;stroke-width:8.41px;}.cls-2{font-size:21.05px;fill:#1d1d1b;font-family:DINNextRoundedLTPro-Bold, DIN Next Rounded LT Pro;font-weight:700;}.cls-2,.cls-6{letter-spacing:-0.06em;}.cls-3{letter-spacing:-0.07em;}.cls-4{letter-spacing:-0.06em;}.cls-5{letter-spacing:-0.07em;}.cls-7{letter-spacing:-0.06em;}.cls-8{letter-spacing:-0.06em;}.cls-9{letter-spacing:-0.07em;}</style></defs><title>82</title><path class="cls-1" d="M347.64,295a318.63,318.63,0,0,0-24.72,107.84l42.13.48c1.15-2,26.3-26.44,26.3-26.44s23.58,20.4,27.92,27.06l45.94.52.49,0A176.9,176.9,0,0,1,518,293l-42.25-43.46,6.9-29-29.17,6.07-34.8-35.8A318.18,318.18,0,0,0,347.64,295Z" transform="translate(-318.49 -184.85)"/><text class="cls-2" transform="translate(84.86 119.76)">6<tspan class="cls-3" x="10.52" y="0">.</tspan><tspan class="cls-4" x="14.44" y="0"> </tspan><tspan class="cls-5"><tspan x="-56.36" y="25.26">R</tspan><tspan class="cls-6" x="-44.73" y="25.26">emanu</tspan><tspan class="cls-7" x="12.54" y="25.26">f</tspan><tspan class="cls-8" x="18.46" y="25.26">actu</tspan><tspan class="cls-9" x="53.42" y="25.26">r</tspan><tspan class="cls-6" x="60.87" y="25.26">a</tspan></tspan></text></svg>