<svg id="Capa_1" data-name="Capa 1" xmlns="http://www.w3.org/2000/svg" viewBox="0 0 205.33 223.85"><defs><style>.cls-1{fill:#999;stroke:#fff;stroke-miterlimit:10;stroke-width:8.4px;}.cls-2{font-size:21.03px;fill:#1d1d1b;font-family:DINNextRoundedLTPro-Bold, DIN Next Rounded LT Pro;font-weight:700;}.cls-2,.cls-8{letter-spacing:-0.06em;}.cls-3{letter-spacing:-0.07em;}.cls-4{letter-spacing:-0.06em;}.cls-5{letter-spacing:-0.07em;}.cls-6{letter-spacing:-0.06em;}.cls-7{letter-spacing:-0.06em;}</style></defs><title>83</title><path class="cls-1" d="M344.58,295.05a318.43,318.43,0,0,0-24.71,107.77l42.11.48c1.14-2,26.29-26.42,26.29-26.42s23.56,20.39,27.9,27l45.91.52.49,0a176.79,176.79,0,0,1,52.28-111.42l-42.22-43.43,6.89-29-29.15,6.07-34.78-35.78A318,318,0,0,0,344.58,295.05Z" transform="translate(-315.45 -184.99)"/><text class="cls-2" transform="translate(84.81 119.68)">6<tspan class="cls-3" x="10.52" y="0">.</tspan><tspan class="cls-4" x="14.43" y="0"> </tspan><tspan class="cls-5"><tspan x="-56.33" y="25.24">R</tspan><tspan class="cls-6" x="-44.7" y="25.24">emanu</tspan><tspan class="cls-7" x="12.54" y="25.24">f</tspan><tspan class="cls-4" x="18.45" y="25.24">actu</tspan><tspan class="cls-3" x="53.38" y="25.24">r</tspan><tspan class="cls-8" x="60.83" y="25.24">a</tspan></tspan></text></svg>