<svg id="Capa_1" data-name="Capa 1" xmlns="http://www.w3.org/2000/svg" viewBox="0 0 250.32 221.07"><defs><style>.cls-1{fill:#333;}</style></defs><title>91</title><path class="cls-1" d="M459.23,198.18c-28.52-11.81-61.1-1.69-86.85,12.39-23.38,12.78-44.27,31.63-57.24,55.1-24.83,44.93-17.77,112.56,32.35,137.19,24.95,12.26,53.91,13.2,80.92,8.79a159.06,159.06,0,0,0,68.32-28.54c21.47-15.89,38.24-36.51,48.39-61.29,6-14.72,8.32-30.73,4.73-46.36C546.53,261,538.46,247.91,528.66,237a105.8,105.8,0,0,0-73.74-34.76c-27.68-1.07-55.09,10.71-74.76,29.91a116.35,116.35,0,0,0-13.52,16.17c-3.9,5.51-1,13.9,4.48,17.1,6.26,3.66,13.19,1,17.1-4.48a81.33,81.33,0,0,1,52.68-33c19.57-3.34,42,3.13,58.56,15.89,18,13.85,31.44,35.76,25.7,58.9-5.31,21.4-18.59,39.46-34.69,53.58-30.07,26.38-76.14,39.73-116,29.93-10.53-2.59-20.62-7-28.61-14.52A61.63,61.63,0,0,1,331,349.05c-7.12-19.55-6.89-39.58.3-59.18,8.06-22,25.66-40.38,45.29-52.78,22-13.91,50.42-25.41,76-14.82,6.24,2.58,13.75-2.79,15.38-8.73,2-7.19-2.47-12.78-8.73-15.38Z" transform="translate(-301.24 -192.98)"/></svg>