<svg id="Capa_1" data-name="Capa 1" xmlns="http://www.w3.org/2000/svg" viewBox="0 0 104.66 36.3"><defs><style>.cls-1{fill:#fff;}.cls-2{fill:#333;}</style></defs><title>97</title><path class="cls-1" d="M374.84,310.19a9.52,9.52,0,0,1-.43-3.11,9.68,9.68,0,0,1,.41-3.13c.78-2.38,2.86-3.7,5.65-3.7s4.89,1.35,5.65,3.67a9.45,9.45,0,0,1,.43,3.05,1.16,1.16,0,0,1-1.24,1.24h-6.94a.14.14,0,0,0-.16.16,2.34,2.34,0,0,0,.14.76,2.58,2.58,0,0,0,2.7,1.7,5.3,5.3,0,0,0,2.46-.68,2.66,2.66,0,0,1,1.3-.41,1.36,1.36,0,0,1,1.38,1.4,1.57,1.57,0,0,1-.76,1.35,7.86,7.86,0,0,1-4.73,1.4C377.65,313.92,375.6,312.54,374.84,310.19Zm7.81-4.48a.14.14,0,0,0,.16-.16,3.11,3.11,0,0,0-.14-1,2.13,2.13,0,0,0-2.19-1.43,2.09,2.09,0,0,0-2.16,1.43,3.11,3.11,0,0,0-.14,1,.14.14,0,0,0,.16.16Z" transform="translate(-374.41 -285.42)"/><path class="cls-1" d="M445.87,310.19a11.38,11.38,0,0,1,0-6.21c.78-2.43,2.81-3.73,5.56-3.73a5.82,5.82,0,0,1,4.11,1.43,2,2,0,0,1,.76,1.51,1.58,1.58,0,0,1-1.65,1.62,2.3,2.3,0,0,1-1.54-.78,2.18,2.18,0,0,0-1.62-.59,1.87,1.87,0,0,0-2,1.43,10.2,10.2,0,0,0,0,4.43,1.87,1.87,0,0,0,2,1.43,2.18,2.18,0,0,0,1.62-.59,2.3,2.3,0,0,1,1.54-.78A1.58,1.58,0,0,1,456.3,311a2,2,0,0,1-.76,1.51,5.82,5.82,0,0,1-4.11,1.43C448.68,313.92,446.66,312.62,445.87,310.19Z" transform="translate(-374.41 -285.42)"/><path class="cls-1" d="M462.94,313.78c-3,0-4-1.49-4-4.16V297.09a1.89,1.89,0,1,1,3.78,0V309.3c0,.76.27,1.08.86,1.19a1.58,1.58,0,0,1,1.51,1.65c0,.92-.59,1.65-2,1.65Z" transform="translate(-374.41 -285.42)"/><path class="cls-1" d="M479.07,312a1.93,1.93,0,0,1-3.43,1l-.32-.46h0a4.8,4.8,0,0,1-3.7,1.32c-3.35,0-5-1.51-5-4,0-2.89,2.16-4.21,5.4-4.21h2.35a.14.14,0,0,0,.16-.16v-.14c0-1.22-.86-1.94-2.67-1.94a6.26,6.26,0,0,0-2.11.38,2.94,2.94,0,0,1-.89.19,1.43,1.43,0,0,1-1.51-1.51,1.65,1.65,0,0,1,1-1.51,9.08,9.08,0,0,1,4-.76c3.94,0,5.83,2,5.83,5.27v3.57a2.2,2.2,0,0,0,.24,1.24l.35.59A2.11,2.11,0,0,1,479.07,312Zm-4.54-2.76v-.89a.14.14,0,0,0-.16-.16h-1.84c-1.59,0-2.32.49-2.32,1.49s.65,1.38,1.89,1.38C473.69,311.08,474.53,310.49,474.53,309.27Z" transform="translate(-374.41 -285.42)"/><path class="cls-1" d="M419.81,297a1.62,1.62,0,0,1,1.73-1.76h8.91a1.72,1.72,0,1,1,0,3.43h-6.51a.14.14,0,0,0-.16.16v3.65a.14.14,0,0,0,.16.16h5.21a1.71,1.71,0,1,1,0,3.4h-5.21a.14.14,0,0,0-.16.16V310a.14.14,0,0,0,.16.16h6.51a1.72,1.72,0,1,1,0,3.43h-8.91a1.62,1.62,0,0,1-1.73-1.76Z" transform="translate(-374.41 -285.42)"/><path class="cls-2" d="M424.61,286.2c-11.34-3.79-24.92,6.94-26,18.32-1.32,13.5,11,19.34,22.78,16.52,10-2.4,23-13.85,17-25.18-6.21-11.72-21.56-11.14-29-1.39-1.56,2,1.91,4,3.45,2a13.36,13.36,0,0,1,11.48-5.6c5.2.38,11.2,4.63,11.57,10.22.58,8.8-10,15.26-17.39,16.41-9.44,1.47-18.07-4-15.6-14.49,1.92-8.17,12.35-15.76,20.68-13,2.45.82,3.5-3,1.06-3.86Z" transform="translate(-374.41 -285.42)"/><path class="cls-1" d="M435,311.78v-9.4a1.83,1.83,0,0,1,1.89-2,1.8,1.8,0,0,1,1.84,1.46v0h0a4,4,0,0,1,3.3-1.62,3.19,3.19,0,0,1,1.38.27,1.65,1.65,0,0,1,1,1.54,1.82,1.82,0,0,1-1.86,1.92,2.83,2.83,0,0,1-.81-.14,3.84,3.84,0,0,0-1-.14c-1.4,0-2,1-2,2.76v5.32a1.89,1.89,0,1,1-3.78,0Z" transform="translate(-374.41 -285.42)"/><path class="cls-1" d="M397.15,311.78v-5.94c0-1.43-.7-2.38-2.05-2.38s-2,.95-2,2.38v5.94a1.89,1.89,0,1,1-3.78,0v-9.4a1.83,1.83,0,0,1,1.89-2,1.78,1.78,0,0,1,1.81,1.38h0a4.2,4.2,0,0,1,3.46-1.51c2.89,0,4.46,2,4.46,4.86v6.67a1.89,1.89,0,1,1-3.78,0Z" transform="translate(-374.41 -285.42)"/><path class="cls-1" d="M403.79,304.44a14.7,14.7,0,0,1,.51-5c1-3,3.35-4.51,6.56-4.51a6.31,6.31,0,0,1,5.7,2.92,2.34,2.34,0,0,1,.35,1.19,1.75,1.75,0,0,1-1.81,1.78,2,2,0,0,1-1.76-1,2.76,2.76,0,0,0-2.49-1.35,2.68,2.68,0,0,0-2.76,2,26.31,26.31,0,0,0,0,7.89,2.68,2.68,0,0,0,2.76,2,2.76,2.76,0,0,0,2.49-1.35,2,2,0,0,1,1.76-1,1.75,1.75,0,0,1,1.81,1.78,2.34,2.34,0,0,1-.35,1.19,6.31,6.31,0,0,1-5.7,2.92c-3.21,0-5.59-1.51-6.56-4.51A14.7,14.7,0,0,1,403.79,304.44Z" transform="translate(-374.41 -285.42)"/></svg>