<svg id="Capa_1" data-name="Capa 1" xmlns="http://www.w3.org/2000/svg" viewBox="0 0 211.74 199.53"><defs><style>.cls-1{fill:#e84e22;}.cls-2{fill:#333;}</style></defs><title>98</title><rect class="cls-1" width="211.74" height="199.53"/><path class="cls-2" d="M454,234.79c-19-7.69-40.28-1.3-57.48,8-15.62,8.43-29.62,20.86-38.42,36.4-16.78,29.59-12.85,74.35,19.73,91.65,30.78,16.35,73.35,7.78,100.56-12,14.29-10.39,25.78-24,32.58-40.41,4.14-10,6-20.49,3.78-31.17-2-9.76-7.41-18.69-13.95-26.09-13.68-15.5-35-25-55.72-23.54-21.56,1.53-40.41,13.26-52.85,30.67-2.54,3.56-.63,9,2.91,11.08,4.07,2.38,8.53.66,11.08-2.91,17.68-24.75,52.64-30.18,76.28-10.53,12.5,10.38,20.25,25.16,15.36,41.4-4.13,13.71-13.37,25.74-24.24,34.84-20.49,17.15-51.43,25.34-77.51,18.49-13.74-3.61-24.3-12.79-28.82-26.35a58,58,0,0,1,1.05-39.23c5.73-14.69,17.37-26.68,30.58-34.93,14.84-9.28,33.62-16.67,50.78-9.71,4.06,1.64,8.9-1.79,10-5.66,1.27-4.63-1.59-8.31-5.66-10Z" transform="translate(-322.53 -204.95)"/></svg>