<svg id="Capa_1" data-name="Capa 1" xmlns="http://www.w3.org/2000/svg" viewBox="0 0 243.79 215.23"><defs><style>.cls-1{fill:#333;}</style></defs><title>99</title><path class="cls-1" d="M464,205.4c-28.06-11.61-60.15-1.48-85.39,12.52-22.6,12.54-42.76,30.89-55.22,53.72-23.8,43.59-16.91,108.81,31.4,132.86,24.44,12.17,53.06,13,79.56,8.63a155.09,155.09,0,0,0,66.44-28c20.55-15.28,36.81-35.1,46.6-58.85,6-14.55,8.41-30.22,4.88-45.71-3.21-14-11.09-26.83-20.63-37.46-20.1-22.4-51.21-36.06-81.44-33.6-31,2.52-58.33,19.4-76.2,44.62-3.69,5.2-.93,13.13,4.23,16.15,5.91,3.46,12.45,1,16.15-4.23a79.94,79.94,0,0,1,51.54-32.41c19.85-3.33,41.83,3.11,58.16,15.88,17.48,13.67,30.51,35,24.88,57.69-5.23,21-18.62,39.24-34.7,53.15C464.54,386.1,419.42,398.9,380.46,389c-10.34-2.63-20.24-7.14-28-14.62a60.2,60.2,0,0,1-14.27-22.29,83.64,83.64,0,0,1,.46-57.56c7.94-21.67,25-39.47,44.16-51.65,21.66-13.76,49.68-25.13,74.89-14.71,5.89,2.44,13-2.64,14.52-8.24,1.86-6.78-2.33-12.07-8.24-14.52Z" transform="translate(-310.1 -200.34)"/></svg>