<svg id="Capa_1" data-name="Capa 1" xmlns="http://www.w3.org/2000/svg" viewBox="0 0 213.5 213.5"><defs><style>.cls-1{fill:#fff;}.cls-2{fill:#e84e22;}</style></defs><title>56</title><circle class="cls-1" cx="106.75" cy="106.75" r="106.75"/><path class="cls-2" d="M419.09,307.93c0-4.13,1-8,5.68-13.17l7-7.89c3.88-4.26,5.16-7.23,5.16-10.46,0-5-3.36-8.54-8.53-8.54-4.78,0-7.36,2.45-9,6.33s-4.91,5.68-8.27,5.68c-4.91,0-8.27-3.1-8.27-7.88a11.84,11.84,0,0,1,.64-3.49c3-9.31,12.14-16.15,25.32-16.15,15.37,0,26,10.08,26,23.38,0,6.6-2.07,11.63-7,16.93l-8,8.91c-2.19,2.45-3,4.26-3,6.33a8.59,8.59,0,0,1-8.91,8.79A8.41,8.41,0,0,1,419.09,307.93Zm8.79,14a10.59,10.59,0,1,1-10.6,10.58A10.64,10.64,0,0,1,427.88,321.89Z" transform="translate(-319.87 -190.97)"/></svg>